<svg xmlns="http://www.w3.org/2000/svg" xmlns:xlink="http://www.w3.org/1999/xlink" style="margin:auto;background:#000000;display:block;z-index:1;position:relative" width="1920" height="1080" preserveAspectRatio="xMidYMid" viewBox="0 0 1920 1080">
<g transform=""><path id="path0" d="M 1828.0099232186988 1010.1702516978388
c 0 27.957044772955122 -6.840553508276253 8.030214987976471 -14.870768496252724 8.030214987976471
S 1798.2683862261931 1038.127296470794 1798.2683862261931 1010.1702516978388
s 6.840553508276253 -8.030214987976471 14.870768496252724 -8.030214987976471
S 1828.0099232186988 982.2132069248837 1828.0099232186988 1010.1702516978388
z" fill="none" stroke="none"></path>
<circle cx="0" cy="0" r="2.859848965707939" fill="#ffffff">
  <animateMotion begin="-5.490912862820203s" dur="10s" repeatCount="indefinite">
    <mpath xlink:href="#path0"></mpath>
  </animateMotion>
</circle><path id="path1" d="M 1348.2981826653665 216.6494340398387
c 0 26.811690386903752 -6.560307222327513 7.701230217514907 -14.26153743984242 7.701230217514907
S 1319.7751077856817 243.46112442674246 1319.7751077856817 216.6494340398387
s 6.560307222327513 -7.701230217514907 14.26153743984242 -7.701230217514907
S 1348.2981826653665 189.83774365293493 1348.2981826653665 216.6494340398387
z" fill="none" stroke="none"></path>
<circle cx="0" cy="0" r="1.688804881621714" fill="#ffffff">
  <animateMotion begin="-4.826767414204061s" dur="10s" repeatCount="indefinite">
    <mpath xlink:href="#path1"></mpath>
  </animateMotion>
</circle><path id="path2" d="M 1107.8804256664587 760.2908545018042
c 0 31.3034785188171 -7.6593617652424815 8.991424680936827 -16.65078644617931 8.991424680936827
S 1074.5788527741 791.5943330206213 1074.5788527741 760.2908545018042
s 7.6593617652424815 -8.991424680936827 16.65078644617931 -8.991424680936827
S 1107.8804256664587 728.9873759829871 1107.8804256664587 760.2908545018042
z" fill="none" stroke="none"></path>
<circle cx="0" cy="0" r="2.552076545981014" fill="#ffffff">
  <animateMotion begin="-4.9983612915346365s" dur="10s" repeatCount="indefinite">
    <mpath xlink:href="#path2"></mpath>
  </animateMotion>
</circle><path id="path3" d="M 1141.0818087288121 799.4401923444933
c 0 24.14169746443131 -5.907011081722555 6.934317356804739 -12.841328438527293 6.934317356804739
S 1115.3991518517573 823.5818898089246 1115.3991518517573 799.4401923444933
s 5.907011081722555 -6.934317356804739 12.841328438527293 -6.934317356804739
S 1141.0818087288121 775.298494880062 1141.0818087288121 799.4401923444933
z" fill="none" stroke="none"></path>
<circle cx="0" cy="0" r="1.8777961515492279" fill="#ffffff">
  <animateMotion begin="-1.7663109627095186s" dur="10s" repeatCount="indefinite">
    <mpath xlink:href="#path3"></mpath>
  </animateMotion>
</circle><path id="path4" d="M 1231.6367832252809 915.7553656881605
c 0 35.659354939220336 -8.725161314915612 10.242580674031373 -18.967741988946983 10.242580674031373
S 1193.701299247387 951.4147206273808 1193.701299247387 915.7553656881605
s 8.725161314915612 -10.242580674031373 18.967741988946983 -10.242580674031373
S 1231.6367832252809 880.0960107489402 1231.6367832252809 915.7553656881605
z" fill="none" stroke="none"></path>
<circle cx="0" cy="0" r="2.860438469136877" fill="#ffffff">
  <animateMotion begin="-7.06943964925107s" dur="10s" repeatCount="indefinite">
    <mpath xlink:href="#path4"></mpath>
  </animateMotion>
</circle><path id="path5" d="M 1165.089063443904 831.0782224785731
c 0 35.475258339676515 -8.680116402261273 10.189701863524105 -18.86981826578538 10.189701863524105
S 1127.3494269123332 866.5534808182497 1127.3494269123332 831.0782224785731
s 8.680116402261273 -10.189701863524105 18.86981826578538 -10.189701863524105
S 1165.089063443904 795.6029641388966 1165.089063443904 831.0782224785731
z" fill="none" stroke="none"></path>
<circle cx="0" cy="0" r="1.8935300966865647" fill="#ffffff">
  <animateMotion begin="-8.066248389135902s" dur="10s" repeatCount="indefinite">
    <mpath xlink:href="#path5"></mpath>
  </animateMotion>
</circle><path id="path6" d="M 879.5655677629709 560.5615772058821
c 0 25.319768126029178 -6.195262413815649 7.272699355348807 -13.467961769164456 7.272699355348807
S 852.6296442246419 585.8813453319113 852.6296442246419 560.5615772058821
s 6.195262413815649 -7.272699355348807 13.467961769164456 -7.272699355348807
S 879.5655677629709 535.2418090798529 879.5655677629709 560.5615772058821
z" fill="none" stroke="none"></path>
<circle cx="0" cy="0" r="2.4901513593327675" fill="#ffffff">
  <animateMotion begin="-5.294436738457744s" dur="10s" repeatCount="indefinite">
    <mpath xlink:href="#path6"></mpath>
  </animateMotion>
</circle><path id="path7" d="M 87.26294697607997 491.592064415336
c 0 34.171058564564625 -8.36100369132964 9.815091289821755 -18.176094981151397 9.815091289821755
S 50.910757013777186 525.7631229799006 50.910757013777186 491.592064415336
s 8.36100369132964 -9.815091289821755 18.176094981151397 -9.815091289821755
S 87.26294697607997 457.42100585077134 87.26294697607997 491.592064415336
z" fill="none" stroke="none"></path>
<circle cx="0" cy="0" r="2.45412630559371" fill="#ffffff">
  <animateMotion begin="-9.499958230370925s" dur="10s" repeatCount="indefinite">
    <mpath xlink:href="#path7"></mpath>
  </animateMotion>
</circle><path id="path8" d="M 493.44437203213647 322.94041163118686
c 0 35.78743398002644 -8.756499803623491 10.279369334688447 -19.035869138311938 10.279369334688447
S 455.37263375551265 358.7278456112133 455.37263375551265 322.94041163118686
s 8.756499803623491 -10.279369334688447 19.035869138311938 -10.279369334688447
S 493.44437203213647 287.1529776511604 493.44437203213647 322.94041163118686
z" fill="none" stroke="none"></path>
<circle cx="0" cy="0" r="2.81496808002686" fill="#ffffff">
  <animateMotion begin="-3.7001397364310296s" dur="10s" repeatCount="indefinite">
    <mpath xlink:href="#path8"></mpath>
  </animateMotion>
</circle><path id="path9" d="M 1217.7804973123114 485.9732957781682
c 0 36.94108572694313 -9.03877629489034 10.610737389653877 -19.649513684544218 10.610737389653877
S 1178.481469943223 522.9143815051114 1178.481469943223 485.9732957781682
s 9.03877629489034 -10.610737389653877 19.649513684544218 -10.610737389653877
S 1217.7804973123114 449.0322100512251 1217.7804973123114 485.9732957781682
z" fill="none" stroke="none"></path>
<circle cx="0" cy="0" r="2.572686285011931" fill="#ffffff">
  <animateMotion begin="-5.409406901099594s" dur="10s" repeatCount="indefinite">
    <mpath xlink:href="#path9"></mpath>
  </animateMotion>
</circle><path id="path10" d="M 826.6795522471997 130.12101368359757
c 0 37.119434673602775 -9.082414866945358 10.661965278588031 -19.744380145533388 10.661965278588031
S 787.190791956133 167.24044835720034 787.190791956133 130.12101368359757
s 9.082414866945358 -10.661965278588031 19.744380145533388 -10.661965278588031
S 826.6795522471997 93.0015790099948 826.6795522471997 130.12101368359757
z" fill="none" stroke="none"></path>
<circle cx="0" cy="0" r="2.150753461992133" fill="#ffffff">
  <animateMotion begin="-9.354874615164313s" dur="10s" repeatCount="indefinite">
    <mpath xlink:href="#path10"></mpath>
  </animateMotion>
</circle><path id="path11" d="M 815.1449286190565 809.7542326780928
c 0 30.786416209775997 -7.532846519413275 8.842906783659062 -16.375753303072337 8.842906783659062
S 782.3934220129119 840.5406488878688 782.3934220129119 809.7542326780928
s 7.532846519413275 -8.842906783659062 16.375753303072337 -8.842906783659062
S 815.1449286190565 778.9678164683168 815.1449286190565 809.7542326780928
z" fill="none" stroke="none"></path>
<circle cx="0" cy="0" r="2.595400719687741" fill="#ffffff">
  <animateMotion begin="-3.5634946126170575s" dur="10s" repeatCount="indefinite">
    <mpath xlink:href="#path11"></mpath>
  </animateMotion>
</circle><path id="path12" d="M 484.54217523238435 869.0646017661261
c 0 35.42667102138527 -8.668228015870863 10.175745931674491 -18.843973947545354 10.175745931674491
S 446.85422733729365 904.4912727875113 446.85422733729365 869.0646017661261
s 8.668228015870863 -10.175745931674491 18.843973947545354 -10.175745931674491
S 484.54217523238435 833.6379307447409 484.54217523238435 869.0646017661261
z" fill="none" stroke="none"></path>
<circle cx="0" cy="0" r="2.5462413003100117" fill="#ffffff">
  <animateMotion begin="-7.905802996088855s" dur="10s" repeatCount="indefinite">
    <mpath xlink:href="#path12"></mpath>
  </animateMotion>
</circle><path id="path13" d="M 1331.4673973381302 1039.0310418697247
c 0 24.150061634777842 -5.909057634041386 6.936719831265976 -12.845777465307362 6.936719831265976
S 1305.7758424075157 1063.1811035045025 1305.7758424075157 1039.0310418697247
s 5.909057634041386 -6.936719831265976 12.845777465307362 -6.936719831265976
S 1331.4673973381302 1014.880980234947 1331.4673973381302 1039.0310418697247
z" fill="none" stroke="none"></path>
<circle cx="0" cy="0" r="2.2137298706735806" fill="#ffffff">
  <animateMotion begin="-9.234634289815908s" dur="10s" repeatCount="indefinite">
    <mpath xlink:href="#path13"></mpath>
  </animateMotion>
</circle><path id="path14" d="M 1293.9153375629485 239.3634305741686
c 0 26.796394501460707 -6.5565646120595344 7.696836718504672 -14.253401330564206 7.696836718504672
S 1265.40853490182 266.1598250756293 1265.40853490182 239.3634305741686
s 6.5565646120595344 -7.696836718504672 14.253401330564206 -7.696836718504672
S 1293.9153375629485 212.5670360727079 1293.9153375629485 239.3634305741686
z" fill="none" stroke="none"></path>
<circle cx="0" cy="0" r="2.9430526258160468" fill="#ffffff">
  <animateMotion begin="-7.33042244115075s" dur="10s" repeatCount="indefinite">
    <mpath xlink:href="#path14"></mpath>
  </animateMotion>
</circle><path id="path15" d="M 1887.0979221462133 750.894274088324
c 0 22.089202389375632 -5.404804839953612 6.34477089907598 -11.749575739029591 6.34477089907598
S 1863.5987706681542 772.9834764776996 1863.5987706681542 750.894274088324
s 5.404804839953612 -6.34477089907598 11.749575739029591 -6.34477089907598
S 1887.0979221462133 728.8050716989484 1887.0979221462133 750.894274088324
z" fill="none" stroke="none"></path>
<circle cx="0" cy="0" r="2.2062260637069517" fill="#ffffff">
  <animateMotion begin="-6.9815397022495285s" dur="10s" repeatCount="indefinite">
    <mpath xlink:href="#path15"></mpath>
  </animateMotion>
</circle><path id="path16" d="M 1422.4623953574032 523.9668281670362
c 0 36.77763395385802 -8.998782775943983 10.563788476108156 -19.562571252052138 10.563788476108156
S 1383.337252853299 560.7444621208942 1383.337252853299 523.9668281670362
s 8.998782775943983 -10.563788476108156 19.562571252052138 -10.563788476108156
S 1422.4623953574032 487.18919421317815 1422.4623953574032 523.9668281670362
z" fill="none" stroke="none"></path>
<circle cx="0" cy="0" r="1.9877089936347563" fill="#ffffff">
  <animateMotion begin="-5.0935831917618435s" dur="10s" repeatCount="indefinite">
    <mpath xlink:href="#path16"></mpath>
  </animateMotion>
</circle><path id="path17" d="M 1338.0157078440309 535.0878582974757
c 0 21.16761496271971 -5.179310044069715 6.080059616951406 -11.259369661021122 6.080059616951406
S 1315.4969685219887 556.2554732601955 1315.4969685219887 535.0878582974757
s 5.179310044069715 -6.080059616951406 11.259369661021122 -6.080059616951406
S 1338.0157078440309 513.9202433347559 1338.0157078440309 535.0878582974757
z" fill="none" stroke="none"></path>
<circle cx="0" cy="0" r="2.588988494189933" fill="#ffffff">
  <animateMotion begin="-9.067192262785728s" dur="10s" repeatCount="indefinite">
    <mpath xlink:href="#path17"></mpath>
  </animateMotion>
</circle><path id="path18" d="M 296.8172355062753 155.50936149686635
c 0 24.73238420849332 -6.051540816971769 7.103982698184251 -13.15552351515602 7.103982698184251
S 270.5061884759633 180.24174570535968 270.5061884759633 155.50936149686635
s 6.051540816971769 -7.103982698184251 13.15552351515602 -7.103982698184251
S 296.8172355062753 130.77697728837302 296.8172355062753 155.50936149686635
z" fill="none" stroke="none"></path>
<circle cx="0" cy="0" r="2.1301900741721655" fill="#ffffff">
  <animateMotion begin="-3.197627443680642s" dur="10s" repeatCount="indefinite">
    <mpath xlink:href="#path18"></mpath>
  </animateMotion>
</circle><path id="path19" d="M 761.3776846721403 198.5048306906153
c 0 32.135767086916715 -7.863006840415791 9.230486290922887 -17.093493131338676 9.230486290922887
S 727.190698409463 230.64059777753204 727.190698409463 198.5048306906153
s 7.863006840415791 -9.230486290922887 17.093493131338676 -9.230486290922887
S 761.3776846721403 166.36906360369858 761.3776846721403 198.5048306906153
z" fill="none" stroke="none"></path>
<circle cx="0" cy="0" r="2.3284517794232804" fill="#ffffff">
  <animateMotion begin="-8.002203112741258s" dur="10s" repeatCount="indefinite">
    <mpath xlink:href="#path19"></mpath>
  </animateMotion>
</circle><path id="path20" d="M 634.3627027720102 1027.9043055654322
c 0 29.904563137005823 -7.317073959054616 8.589608560629332 -15.906682519683947 8.589608560629332
S 602.5493377326422 1057.808868702438 602.5493377326422 1027.9043055654322
s 7.317073959054616 -8.589608560629332 15.906682519683947 -8.589608560629332
S 634.3627027720102 997.9997424284263 634.3627027720102 1027.9043055654322
z" fill="none" stroke="none"></path>
<circle cx="0" cy="0" r="2.8559706460998076" fill="#ffffff">
  <animateMotion begin="-8.876159513267597s" dur="10s" repeatCount="indefinite">
    <mpath xlink:href="#path20"></mpath>
  </animateMotion>
</circle><path id="path21" d="M 464.1274043400473 829.4980699499313
c 0 37.074210034417085 -9.071349263740348 10.648975222651716 -19.720324486392066 10.648975222651716
S 424.6867553672631 866.5722799843484 424.6867553672631 829.4980699499313
s 9.071349263740348 -10.648975222651716 19.720324486392066 -10.648975222651716
S 464.1274043400473 792.4238599155142 464.1274043400473 829.4980699499313
z" fill="none" stroke="none"></path>
<circle cx="0" cy="0" r="2.6074471228783174" fill="#ffffff">
  <animateMotion begin="-4.642238063722917s" dur="10s" repeatCount="indefinite">
    <mpath xlink:href="#path21"></mpath>
  </animateMotion>
</circle><path id="path22" d="M 1618.899810851079 139.74804624388497
c 0 25.069541094245757 -6.134036650719706 7.200825633453569 -13.334862284173274 7.200825633453569
S 1592.2300862827324 164.81758733813072 1592.2300862827324 139.74804624388497
s 6.134036650719706 -7.200825633453569 13.334862284173274 -7.200825633453569
S 1618.899810851079 114.67850514963922 1618.899810851079 139.74804624388497
z" fill="none" stroke="none"></path>
<circle cx="0" cy="0" r="1.759073936021767" fill="#ffffff">
  <animateMotion begin="-6.630922999085018s" dur="10s" repeatCount="indefinite">
    <mpath xlink:href="#path22"></mpath>
  </animateMotion>
</circle><path id="path23" d="M 1326.1223168436318 990.2294731107617
c 0 20.83332926868307 -5.097516735954367 5.984041385685562 -11.08155812163993 5.984041385685562
S 1303.9592006003518 1011.0628023794447 1303.9592006003518 990.2294731107617
s 5.097516735954367 -5.984041385685562 11.08155812163993 -5.984041385685562
S 1326.1223168436318 969.3961438420786 1326.1223168436318 990.2294731107617
z" fill="none" stroke="none"></path>
<circle cx="0" cy="0" r="2.702107850490238" fill="#ffffff">
  <animateMotion begin="-2.674676181085498s" dur="10s" repeatCount="indefinite">
    <mpath xlink:href="#path23"></mpath>
  </animateMotion>
</circle><path id="path24" d="M 415.7601800730241 871.1313111073606
c 0 32.725023419079214 -8.007186581264063 9.399740769309988 -17.40692735057405 9.399740769309988
S 380.946325371876 903.8563345264398 380.946325371876 871.1313111073606
s 8.007186581264063 -9.399740769309988 17.40692735057405 -9.399740769309988
S 415.7601800730241 838.4062876882814 415.7601800730241 871.1313111073606
z" fill="none" stroke="none"></path>
<circle cx="0" cy="0" r="1.500997414602081" fill="#ffffff">
  <animateMotion begin="-0.9509991205888091s" dur="10s" repeatCount="indefinite">
    <mpath xlink:href="#path24"></mpath>
  </animateMotion>
</circle><path id="path25" d="M 734.8140883997239 410.3154498439416
c 0 20.340904995126117 -4.977029945615965 5.842600370940481 -10.819630316556445 5.842600370940481
S 713.1748277666111 430.6563548390677 713.1748277666111 410.3154498439416
s 4.977029945615965 -5.842600370940481 10.819630316556445 -5.842600370940481
S 734.8140883997239 389.9745448488155 734.8140883997239 410.3154498439416
z" fill="none" stroke="none"></path>
<circle cx="0" cy="0" r="2.9599535254167875" fill="#ffffff">
  <animateMotion begin="-0.17707827473261384s" dur="10s" repeatCount="indefinite">
    <mpath xlink:href="#path25"></mpath>
  </animateMotion>
</circle><path id="path26" d="M 247.26226222095826 162.0306184692325
c 0 32.38199675258283 -7.923254524568137 9.301211833188685 -17.22446635775682 9.301211833188685
S 212.8133295054446 194.41261522181534 212.8133295054446 162.0306184692325
s 7.923254524568137 -9.301211833188685 17.22446635775682 -9.301211833188685
S 247.26226222095826 129.64862171664967 247.26226222095826 162.0306184692325
z" fill="none" stroke="none"></path>
<circle cx="0" cy="0" r="1.8744173385236498" fill="#ffffff">
  <animateMotion begin="-3.310235053622854s" dur="10s" repeatCount="indefinite">
    <mpath xlink:href="#path26"></mpath>
  </animateMotion>
</circle><path id="path27" d="M 1888.2285860292884 1011.089605464704
c 0 35.081318369030356 -8.583726834975511 10.076548893232124 -18.660275728207633 10.076548893232124
S 1850.9080345728732 1046.1709238337344 1850.9080345728732 1011.089605464704
s 8.583726834975511 -10.076548893232124 18.660275728207633 -10.076548893232124
S 1888.2285860292884 976.0082870956737 1888.2285860292884 1011.089605464704
z" fill="none" stroke="none"></path>
<circle cx="0" cy="0" r="2.8735925170072285" fill="#ffffff">
  <animateMotion begin="-0.3521084826756993s" dur="10s" repeatCount="indefinite">
    <mpath xlink:href="#path27"></mpath>
  </animateMotion>
</circle><path id="path28" d="M 859.2131238905963 990.1375460264882
c 0 24.506029038762073 -5.99615604139923 7.0389657877295315 -13.035121829128762 7.0389657877295315
S 833.1428802323387 1014.6435750652503 833.1428802323387 990.1375460264882
s 5.99615604139923 -7.0389657877295315 13.035121829128762 -7.0389657877295315
S 859.2131238905963 965.6315169877261 859.2131238905963 990.1375460264882
z" fill="none" stroke="none"></path>
<circle cx="0" cy="0" r="1.7661909995635057" fill="#ffffff">
  <animateMotion begin="-6.44621759075916s" dur="10s" repeatCount="indefinite">
    <mpath xlink:href="#path28"></mpath>
  </animateMotion>
</circle><path id="path29" d="M 772.6557921082464 907.5358814560158
c 0 35.912290814665326 -8.78704988018407 10.315232468042169 -19.10228234822624 10.315232468042169
S 734.4512274117939 943.4481722706811 734.4512274117939 907.5358814560158
s 8.78704988018407 -10.315232468042169 19.10228234822624 -10.315232468042169
S 772.6557921082464 871.6235906413505 772.6557921082464 907.5358814560158
z" fill="none" stroke="none"></path>
<circle cx="0" cy="0" r="2.075437098017308" fill="#ffffff">
  <animateMotion begin="-7.101862462299131s" dur="10s" repeatCount="indefinite">
    <mpath xlink:href="#path29"></mpath>
  </animateMotion>
</circle><path id="path30" d="M 232.79115401434322 338.92561477031546
c 0 24.208983065065347 -5.923474579750031 6.953644071880473 -12.877118651630504 6.953644071880473
S 207.03691671108223 363.1345978353808 207.03691671108223 338.92561477031546
s 5.923474579750031 -6.953644071880473 12.877118651630504 -6.953644071880473
S 232.79115401434322 314.7166317052501 232.79115401434322 338.92561477031546
z" fill="none" stroke="none"></path>
<circle cx="0" cy="0" r="1.8275492806493756" fill="#ffffff">
  <animateMotion begin="-0.2213326499171897s" dur="10s" repeatCount="indefinite">
    <mpath xlink:href="#path30"></mpath>
  </animateMotion>
</circle><path id="path31" d="M 676.0418105026805 1074.496340093269
c 0 28.12528327510749 -6.8817182481645975 8.078538813062789 -14.960257061227386 8.078538813062789
S 646.1212963802258 1102.6216233683765 646.1212963802258 1074.496340093269
s 6.8817182481645975 -8.078538813062789 14.960257061227386 -8.078538813062789
S 676.0418105026805 1046.3710568181616 676.0418105026805 1074.496340093269
z" fill="none" stroke="none"></path>
<circle cx="0" cy="0" r="1.6806019107401817" fill="#ffffff">
  <animateMotion begin="-6.12376956153871s" dur="10s" repeatCount="indefinite">
    <mpath xlink:href="#path31"></mpath>
  </animateMotion>
</circle><path id="path32" d="M 283.99579760979714 57.43142311982836
c 0 19.47856062104745 -4.76603079025629 5.594905710300863 -10.360936500557154 5.594905710300863
S 263.2739246086828 76.90998374087582 263.2739246086828 57.43142311982836
s 4.76603079025629 -5.594905710300863 10.360936500557154 -5.594905710300863
S 283.99579760979714 37.95286249878091 283.99579760979714 57.43142311982836
z" fill="none" stroke="none"></path>
<circle cx="0" cy="0" r="2.354903023053511" fill="#ffffff">
  <animateMotion begin="-4.536903339825282s" dur="10s" repeatCount="indefinite">
    <mpath xlink:href="#path32"></mpath>
  </animateMotion>
</circle><path id="path33" d="M 1886.6289779020867 905.7610668345785
c 0 26.32443815303357 -6.441085931061404 7.561274788637301 -14.002360719698705 7.561274788637301
S 1858.6242564626891 932.0855049876121 1858.6242564626891 905.7610668345785
s 6.441085931061404 -7.561274788637301 14.002360719698705 -7.561274788637301
S 1886.6289779020867 879.4366286815449 1886.6289779020867 905.7610668345785
z" fill="none" stroke="none"></path>
<circle cx="0" cy="0" r="2.410681589517252" fill="#ffffff">
  <animateMotion begin="-0.877089764091219s" dur="10s" repeatCount="indefinite">
    <mpath xlink:href="#path33"></mpath>
  </animateMotion>
</circle><path id="path34" d="M 307.0345687482217 567.327572802697
c 0 19.253205293946106 -4.710890657029365 5.530175988686647 -10.241066645716012 5.530175988686647
S 286.55243545678974 586.580778096643 286.55243545678974 567.327572802697
s 4.710890657029365 -5.530175988686647 10.241066645716012 -5.530175988686647
S 307.0345687482217 548.0743675087509 307.0345687482217 567.327572802697
z" fill="none" stroke="none"></path>
<circle cx="0" cy="0" r="2.7258832934203228" fill="#ffffff">
  <animateMotion begin="-5.364520738441694s" dur="10s" repeatCount="indefinite">
    <mpath xlink:href="#path34"></mpath>
  </animateMotion>
</circle><path id="path35" d="M 68.92716646338567 63.223327642731064
c 0 22.857573060428784 -5.592810429679383 6.565473113101885 -12.158283542781268 6.565473113101885
S 44.610599377823135 86.08090070315984 44.610599377823135 63.223327642731064
s 5.592810429679383 -6.565473113101885 12.158283542781268 -6.565473113101885
S 68.92716646338567 40.36575458230228 68.92716646338567 63.223327642731064
z" fill="none" stroke="none"></path>
<circle cx="0" cy="0" r="1.8287524432264792" fill="#ffffff">
  <animateMotion begin="-0.6610442378006631s" dur="10s" repeatCount="indefinite">
    <mpath xlink:href="#path35"></mpath>
  </animateMotion>
</circle><path id="path36" d="M 255.62758932066095 356.9673630132506
c 0 32.43576241274725 -7.936409952055178 9.316655161108255 -17.253065113163434 9.316655161108255
S 221.12145909433406 389.4031254259978 221.12145909433406 356.9673630132506
s 7.936409952055178 -9.316655161108255 17.253065113163434 -9.316655161108255
S 255.62758932066095 324.53160060050334 255.62758932066095 356.9673630132506
z" fill="none" stroke="none"></path>
<circle cx="0" cy="0" r="2.780803935910582" fill="#ffffff">
  <animateMotion begin="-3.716993428619235s" dur="10s" repeatCount="indefinite">
    <mpath xlink:href="#path36"></mpath>
  </animateMotion>
</circle><path id="path37" d="M 1100.9365468595627 505.04805953880134
c 0 20.463138211941875 -5.006938073134713 5.877709911940751 -10.884647985075464 5.877709911940751
S 1079.167250889412 525.5111977507432 1079.167250889412 505.04805953880134
s 5.006938073134713 -5.877709911940751 10.884647985075464 -5.877709911940751
S 1100.9365468595627 484.58492132685944 1100.9365468595627 505.04805953880134
z" fill="none" stroke="none"></path>
<circle cx="0" cy="0" r="2.985241884276689" fill="#ffffff">
  <animateMotion begin="-0.7232605866047259s" dur="10s" repeatCount="indefinite">
    <mpath xlink:href="#path37"></mpath>
  </animateMotion>
</circle><path id="path38" d="M 856.0252209646239 26.827259896271865
c 0 22.43862149654424 -5.49030100447359 6.445135961773345 -11.935436966246936 6.445135961773345
S 832.1543470321301 49.265881392816105 832.1543470321301 26.827259896271865
s 5.49030100447359 -6.445135961773345 11.935436966246936 -6.445135961773345
S 856.0252209646239 4.3886383997276255 856.0252209646239 26.827259896271865
z" fill="none" stroke="none"></path>
<circle cx="0" cy="0" r="2.42138207765259" fill="#ffffff">
  <animateMotion begin="-6.43461921237539s" dur="10s" repeatCount="indefinite">
    <mpath xlink:href="#path38"></mpath>
  </animateMotion>
</circle><path id="path39" d="M 1812.725038430752 317.5062719807497
c 0 22.8637892528882 -5.594331412940729 6.5672586151912915 -12.161590028132022 6.5672586151912915
S 1788.401858374488 340.3700612336379 1788.401858374488 317.5062719807497
s 5.594331412940729 -6.5672586151912915 12.161590028132022 -6.5672586151912915
S 1812.725038430752 294.64248272786153 1812.725038430752 317.5062719807497
z" fill="none" stroke="none"></path>
<circle cx="0" cy="0" r="2.8251220210425494" fill="#ffffff">
  <animateMotion begin="-8.659075979086834s" dur="10s" repeatCount="indefinite">
    <mpath xlink:href="#path39"></mpath>
  </animateMotion>
</circle><path id="path40" d="M 32.8127746427451 663.4554162794672
c 0 31.33836521637556 -7.667897872091892 9.001445328107874 -16.669343200199766 9.001445328107874
S -0.5259117576544305 694.7937814958427 -0.5259117576544305 663.4554162794672
s 7.667897872091892 -9.001445328107874 16.669343200199766 -9.001445328107874
S 32.8127746427451 632.1170510630916 32.8127746427451 663.4554162794672
z" fill="none" stroke="none"></path>
<circle cx="0" cy="0" r="1.7345952696411877" fill="#ffffff">
  <animateMotion begin="-7.39035145157753s" dur="10s" repeatCount="indefinite">
    <mpath xlink:href="#path40"></mpath>
  </animateMotion>
</circle><path id="path41" d="M 29.628082192118054 516.7116919920904
c 0 18.85437110581614 -4.6133035684443735 5.415617232521656 -10.02892080096603 5.415617232521656
S 9.570240590185993 535.5660630979065 9.570240590185993 516.7116919920904
s 4.6133035684443735 -5.415617232521656 10.02892080096603 -5.415617232521656
S 29.628082192118054 497.8573208862743 29.628082192118054 516.7116919920904
z" fill="none" stroke="none"></path>
<circle cx="0" cy="0" r="2.598393842204594" fill="#ffffff">
  <animateMotion begin="-6.698087245723059s" dur="10s" repeatCount="indefinite">
    <mpath xlink:href="#path41"></mpath>
  </animateMotion>
</circle><path id="path42" d="M 1277.9939499262941 864.7372223710887
c 0 23.27716448632079 -5.6954764168657235 6.685994054581503 -12.381470471447226 6.685994054581503
S 1253.2310089833995 888.0143868574095 1253.2310089833995 864.7372223710887
s 5.6954764168657235 -6.685994054581503 12.381470471447226 -6.685994054581503
S 1277.9939499262941 841.4600578847679 1277.9939499262941 864.7372223710887
z" fill="none" stroke="none"></path>
<circle cx="0" cy="0" r="2.147409307558042" fill="#ffffff">
  <animateMotion begin="-7.5152619461542365s" dur="10s" repeatCount="indefinite">
    <mpath xlink:href="#path42"></mpath>
  </animateMotion>
</circle><path id="path43" d="M 1803.5902558744315 719.41813436487
c 0 21.134562972390235 -5.171222854946546 6.070565960154642 -11.241788815101188 6.070565960154642
S 1781.106678244229 740.5526973372602 1781.106678244229 719.41813436487
s 5.171222854946546 -6.070565960154642 11.241788815101188 -6.070565960154642
S 1803.5902558744315 698.2835713924798 1803.5902558744315 719.41813436487
z" fill="none" stroke="none"></path>
<circle cx="0" cy="0" r="2.7835589891653285" fill="#ffffff">
  <animateMotion begin="-2.8317702447543436s" dur="10s" repeatCount="indefinite">
    <mpath xlink:href="#path43"></mpath>
  </animateMotion>
</circle><path id="path44" d="M 1053.3136080139377 61.8115949836332
c 0 34.10499193013287 -8.344838450989956 9.796114703336036 -18.14095315432599 9.796114703336036
S 1017.0317017052856 95.91658691376607 1017.0317017052856 61.8115949836332
s 8.344838450989956 -9.796114703336036 18.14095315432599 -9.796114703336036
S 1053.3136080139377 27.70660305350033 1053.3136080139377 61.8115949836332
z" fill="none" stroke="none"></path>
<circle cx="0" cy="0" r="1.6841752471461362" fill="#ffffff">
  <animateMotion begin="-4.184609574266307s" dur="10s" repeatCount="indefinite">
    <mpath xlink:href="#path44"></mpath>
  </animateMotion>
</circle><path id="path45" d="M 1182.1918915409146 371.55823350755276
c 0 31.034885090737756 -7.593642096669876 8.914275504786376 -16.507917601456253 8.914275504786376
S 1149.1760563380021 402.5931185982905 1149.1760563380021 371.55823350755276
s 7.593642096669876 -8.914275504786376 16.507917601456253 -8.914275504786376
S 1182.1918915409146 340.523348416815 1182.1918915409146 371.55823350755276
z" fill="none" stroke="none"></path>
<circle cx="0" cy="0" r="2.321906021798587" fill="#ffffff">
  <animateMotion begin="-4.745747698016077s" dur="10s" repeatCount="indefinite">
    <mpath xlink:href="#path45"></mpath>
  </animateMotion>
</circle><path id="path46" d="M 148.0134087746681 580.1417310490973
c 0 33.66131471055158 -8.236279131305173 9.668675501966943 -17.904954633272116 9.668675501966943
S 112.20349950812387 613.8030457596489 112.20349950812387 580.1417310490973
s 8.236279131305173 -9.668675501966943 17.904954633272116 -9.668675501966943
S 148.0134087746681 546.4804163385458 148.0134087746681 580.1417310490973
z" fill="none" stroke="none"></path>
<circle cx="0" cy="0" r="1.5363054036140789" fill="#ffffff">
  <animateMotion begin="-4.715376700458989s" dur="10s" repeatCount="indefinite">
    <mpath xlink:href="#path46"></mpath>
  </animateMotion>
</circle><path id="path47" d="M 702.1366945363313 959.6929137526207
c 0 31.64041612371252 -7.741803945163701 9.088204631279128 -16.83000857644283 9.088204631279128
S 668.4766773834456 991.3333298763332 668.4766773834456 959.6929137526207
s 7.741803945163701 -9.088204631279128 16.83000857644283 -9.088204631279128
S 702.1366945363313 928.0524976289082 702.1366945363313 959.6929137526207
z" fill="none" stroke="none"></path>
<circle cx="0" cy="0" r="2.9419359191869017" fill="#ffffff">
  <animateMotion begin="-6.989568535562672s" dur="10s" repeatCount="indefinite">
    <mpath xlink:href="#path47"></mpath>
  </animateMotion>
</circle><path id="path48" d="M 1613.3369532664312 426.7609558229247
c 0 24.57079968091962 -6.012004177246289 7.05757012111521 -13.069574298361498 7.05757012111521
S 1587.1978046697084 451.3317555038443 1587.1978046697084 426.7609558229247
s 6.012004177246289 -7.05757012111521 13.069574298361498 -7.05757012111521
S 1613.3369532664312 402.1901561420051 1613.3369532664312 426.7609558229247
z" fill="none" stroke="none"></path>
<circle cx="0" cy="0" r="2.5123372828575974" fill="#ffffff">
  <animateMotion begin="-1.508821948664043s" dur="10s" repeatCount="indefinite">
    <mpath xlink:href="#path48"></mpath>
  </animateMotion>
</circle><path id="path49" d="M 576.7953152360667 299.71813923372014
c 0 33.873934502260184 -8.28830312289345 9.729747144266224 -18.018050267159673 9.729747144266224
S 540.7592147017474 333.5920737359803 540.7592147017474 299.71813923372014
s 8.28830312289345 -9.729747144266224 18.018050267159673 -9.729747144266224
S 576.7953152360667 265.84420473145997 576.7953152360667 299.71813923372014
z" fill="none" stroke="none"></path>
<circle cx="0" cy="0" r="1.5779442164473076" fill="#ffffff">
  <animateMotion begin="-8.146462272968618s" dur="10s" repeatCount="indefinite">
    <mpath xlink:href="#path49"></mpath>
  </animateMotion>
</circle><path id="path50" d="M 1447.0052441489174 397.1992856458639
c 0 24.03052466582363 -5.879809226744079 6.902384744438703 -12.782193971182782 6.902384744438703
S 1421.4408562065519 421.2298103116875 1421.4408562065519 397.1992856458639
s 5.879809226744079 -6.902384744438703 12.782193971182782 -6.902384744438703
S 1447.0052441489174 373.16876098004025 1447.0052441489174 397.1992856458639
z" fill="none" stroke="none"></path>
<circle cx="0" cy="0" r="2.073571934375685" fill="#ffffff">
  <animateMotion begin="-2.662360246479012s" dur="10s" repeatCount="indefinite">
    <mpath xlink:href="#path50"></mpath>
  </animateMotion>
</circle><path id="path51" d="M 1464.0637110152577 305.5973058998619
c 0 24.59716242536761 -6.0184546359942015 7.065142398775803 -13.083597034770005 7.065142398775803
S 1437.8965169457176 330.19446832522954 1437.8965169457176 305.5973058998619
s 6.0184546359942015 -7.065142398775803 13.083597034770005 -7.065142398775803
S 1464.0637110152577 281.0001434744943 1464.0637110152577 305.5973058998619
z" fill="none" stroke="none"></path>
<circle cx="0" cy="0" r="2.483274505165773" fill="#ffffff">
  <animateMotion begin="-4.766900481267637s" dur="10s" repeatCount="indefinite">
    <mpath xlink:href="#path51"></mpath>
  </animateMotion>
</circle><path id="path52" d="M 79.28679364898686 835.7771408266998
c 0 32.40051661495158 -7.927785980254107 9.30653136812439 -17.234317348378497 9.30653136812439
S 44.818158952229865 868.1776574416514 44.818158952229865 835.7771408266998
s 7.927785980254107 -9.30653136812439 17.234317348378497 -9.30653136812439
S 79.28679364898686 803.3766242117482 79.28679364898686 835.7771408266998
z" fill="none" stroke="none"></path>
<circle cx="0" cy="0" r="2.3744300481905958" fill="#ffffff">
  <animateMotion begin="-9.514459604414435s" dur="10s" repeatCount="indefinite">
    <mpath xlink:href="#path52"></mpath>
  </animateMotion>
</circle><path id="path53" d="M 1858.6336276784282 145.4108458959659
c 0 31.88059642742226 -7.800571466284169 9.157192590855331 -16.9577640571395 9.157192590855331
S 1824.7180995641493 177.29144232338817 1824.7180995641493 145.4108458959659
s 7.800571466284169 -9.157192590855331 16.9577640571395 -9.157192590855331
S 1858.6336276784282 113.53024946854364 1858.6336276784282 145.4108458959659
z" fill="none" stroke="none"></path>
<circle cx="0" cy="0" r="1.5927346506512103" fill="#ffffff">
  <animateMotion begin="-2.2122954545637508s" dur="10s" repeatCount="indefinite">
    <mpath xlink:href="#path53"></mpath>
  </animateMotion>
</circle><path id="path54" d="M 1770.7079257480966 61.361165034124575
c 0 21.282408709801217 -5.207397875802425 6.113032288985456 -11.32043016478788 6.113032288985456
S 1748.0670654185208 82.6435737439258 1748.0670654185208 61.361165034124575
s 5.207397875802425 -6.113032288985456 11.32043016478788 -6.113032288985456
S 1770.7079257480966 40.07875632432336 1770.7079257480966 61.361165034124575
z" fill="none" stroke="none"></path>
<circle cx="0" cy="0" r="2.0072268106937208" fill="#ffffff">
  <animateMotion begin="-9.049444214832864s" dur="10s" repeatCount="indefinite">
    <mpath xlink:href="#path54"></mpath>
  </animateMotion>
</circle><path id="path55" d="M 946.2669252529671 944.897415141383
c 0 21.45636075922706 -5.249960611300238 6.162997239352454 -11.412957850652692 6.162997239352454
S 923.4410095516618 966.3537759006101 923.4410095516618 944.897415141383
s 5.249960611300238 -6.162997239352454 11.412957850652692 -6.162997239352454
S 946.2669252529671 923.4410543821559 946.2669252529671 944.897415141383
z" fill="none" stroke="none"></path>
<circle cx="0" cy="0" r="2.233307987593795" fill="#ffffff">
  <animateMotion begin="-5.238888388880407s" dur="10s" repeatCount="indefinite">
    <mpath xlink:href="#path55"></mpath>
  </animateMotion>
</circle><path id="path56" d="M 151.9012217853684 837.7873693865345
c 0 26.738961593245516 -6.54251187919837 7.680340032102436 -14.222851911300808 7.680340032102436
S 123.45551796276678 864.52633097978 123.45551796276678 837.7873693865345
s 6.54251187919837 -7.680340032102436 14.222851911300808 -7.680340032102436
S 151.9012217853684 811.0484077932889 151.9012217853684 837.7873693865345
z" fill="none" stroke="none"></path>
<circle cx="0" cy="0" r="1.9142994047358683" fill="#ffffff">
  <animateMotion begin="-3.3466714683519094s" dur="10s" repeatCount="indefinite">
    <mpath xlink:href="#path56"></mpath>
  </animateMotion>
</circle><path id="path57" d="M 1073.7474622095112 373.1130532171655
c 0 30.947414349409936 -7.5722396812386 8.889150930149663 -16.46139061138826 8.889150930149663
S 1040.8246809867348 404.0604675665754 1040.8246809867348 373.1130532171655
s 7.5722396812386 -8.889150930149663 16.46139061138826 -8.889150930149663
S 1073.7474622095112 342.16563886775555 1073.7474622095112 373.1130532171655
z" fill="none" stroke="none"></path>
<circle cx="0" cy="0" r="1.7742005441346995" fill="#ffffff">
  <animateMotion begin="-4.824069364951534s" dur="10s" repeatCount="indefinite">
    <mpath xlink:href="#path57"></mpath>
  </animateMotion>
</circle><path id="path58" d="M 186.94903359656092 952.6779894546308
c 0 29.189302702473967 -7.142063427201077 8.384161414540396 -15.526224841741472 8.384161414540396
S 155.89658391307796 981.8672921571048 155.89658391307796 952.6779894546308
s 7.142063427201077 -8.384161414540396 15.526224841741472 -8.384161414540396
S 186.94903359656092 923.4886867521569 186.94903359656092 952.6779894546308
z" fill="none" stroke="none"></path>
<circle cx="0" cy="0" r="2.2169661463782924" fill="#ffffff">
  <animateMotion begin="-4.837043953334613s" dur="10s" repeatCount="indefinite">
    <mpath xlink:href="#path58"></mpath>
  </animateMotion>
</circle><path id="path59" d="M 1408.4962057044663 988.6601546057699
c 0 37.409599847508325 -9.153412728645653 10.745310594497074 -19.898723323142725 10.745310594497074
S 1368.6987590581807 1026.0697544532782 1368.6987590581807 988.6601546057699
s 9.153412728645653 -10.745310594497074 19.898723323142725 -10.745310594497074
S 1408.4962057044663 951.2505547582616 1408.4962057044663 988.6601546057699
z" fill="none" stroke="none"></path>
<circle cx="0" cy="0" r="2.119478606270432" fill="#ffffff">
  <animateMotion begin="-4.140446458469373s" dur="10s" repeatCount="indefinite">
    <mpath xlink:href="#path59"></mpath>
  </animateMotion>
</circle><path id="path60" d="M 849.3706280834919 150.93953712867489
c 0 27.817273869244243 -6.806354244602314 7.990068026272282 -14.796422270874597 7.990068026272282
S 819.7777835417427 178.75681099791913 819.7777835417427 150.93953712867489
s 6.806354244602314 -7.990068026272282 14.796422270874597 -7.990068026272282
S 849.3706280834919 123.12226325943064 849.3706280834919 150.93953712867489
z" fill="none" stroke="none"></path>
<circle cx="0" cy="0" r="1.5735916920425383" fill="#ffffff">
  <animateMotion begin="-1.4360158541021817s" dur="10s" repeatCount="indefinite">
    <mpath xlink:href="#path60"></mpath>
  </animateMotion>
</circle><path id="path61" d="M 1505.0317613801399 633.7937252269294
c 0 28.420516710665137 -6.953956216439341 8.16333990625488 -15.11729612269422 8.16333990625488
S 1474.7971691347516 662.2142419375945 1474.7971691347516 633.7937252269294
s 6.953956216439341 -8.16333990625488 15.11729612269422 -8.16333990625488
S 1505.0317613801399 605.3732085162643 1505.0317613801399 633.7937252269294
z" fill="none" stroke="none"></path>
<circle cx="0" cy="0" r="2.065140162070414" fill="#ffffff">
  <animateMotion begin="-1.2106887175775083s" dur="10s" repeatCount="indefinite">
    <mpath xlink:href="#path61"></mpath>
  </animateMotion>
</circle><path id="path62" d="M 104.80304293046929 166.45405650455086
c 0 35.94433070368147 -8.794889427496528 10.324435414887231 -19.11932484238376 10.324435414887231
S 66.56439324570177 202.39838720823235 66.56439324570177 166.45405650455086
s 8.794889427496528 -10.324435414887231 19.11932484238376 -10.324435414887231
S 104.80304293046929 130.50972580086938 104.80304293046929 166.45405650455086
z" fill="none" stroke="none"></path>
<circle cx="0" cy="0" r="1.6759091232240952" fill="#ffffff">
  <animateMotion begin="-2.2951210608743633s" dur="10s" repeatCount="indefinite">
    <mpath xlink:href="#path62"></mpath>
  </animateMotion>
</circle><path id="path63" d="M 1119.4740859320539 55.54426854035395
c 0 26.539596722436492 -6.4937311129365884 7.623075654316866 -14.116806767253454 7.623075654316866
S 1091.2404723975471 82.08386526279044 1091.2404723975471 55.54426854035395
s 6.4937311129365884 -7.623075654316866 14.116806767253454 -7.623075654316866
S 1119.4740859320539 29.004671817917455 1119.4740859320539 55.54426854035395
z" fill="none" stroke="none"></path>
<circle cx="0" cy="0" r="2.500016694120262" fill="#ffffff">
  <animateMotion begin="-5.809756570763527s" dur="10s" repeatCount="indefinite">
    <mpath xlink:href="#path63"></mpath>
  </animateMotion>
</circle><path id="path64" d="M 1843.196609987372 734.5181824379911
c 0 31.64015945726856 -7.741741143799753 9.088130907938842 -16.829872051738594 9.088130907938842
S 1809.5368658838947 766.1583418952596 1809.5368658838947 734.5181824379911
s 7.741741143799753 -9.088130907938842 16.829872051738594 -9.088130907938842
S 1843.196609987372 702.8780229807226 1843.196609987372 734.5181824379911
z" fill="none" stroke="none"></path>
<circle cx="0" cy="0" r="1.8070842225415704" fill="#ffffff">
  <animateMotion begin="-3.529583251290469s" dur="10s" repeatCount="indefinite">
    <mpath xlink:href="#path64"></mpath>
  </animateMotion>
</circle><path id="path65" d="M 1831.7693182368696 273.78027857488706
c 0 36.639546006161446 -8.964995299379927 10.524124916663395 -19.48912021604332 10.524124916663395
S 1792.7910778047828 310.4198245810485 1792.7910778047828 273.78027857488706
s 8.964995299379927 -10.524124916663395 19.48912021604332 -10.524124916663395
S 1831.7693182368696 237.1407325687256 1831.7693182368696 273.78027857488706
z" fill="none" stroke="none"></path>
<circle cx="0" cy="0" r="2.077887088603033" fill="#ffffff">
  <animateMotion begin="-9.10381835088926s" dur="10s" repeatCount="indefinite">
    <mpath xlink:href="#path65"></mpath>
  </animateMotion>
</circle><path id="path66" d="M 1149.1549971341851 91.34251607397016
c 0 21.459609983097483 -5.250755634162149 6.163930527059915 -11.414686161222065 6.163930527059915
S 1126.325624811741 112.80212605706764 1126.325624811741 91.34251607397016
s 5.250755634162149 -6.163930527059915 11.414686161222065 -6.163930527059915
S 1149.1549971341851 69.88290609087268 1149.1549971341851 91.34251607397016
z" fill="none" stroke="none"></path>
<circle cx="0" cy="0" r="1.6906482318694955" fill="#ffffff">
  <animateMotion begin="-9.918786878831316s" dur="10s" repeatCount="indefinite">
    <mpath xlink:href="#path66"></mpath>
  </animateMotion>
</circle><path id="path67" d="M 1462.9146480713719 32.77056750041304
c 0 26.746152474544495 -6.544271350154504 7.682405498007462 -14.226676848161965 7.682405498007462
S 1434.4612943750478 59.51671997495753 1434.4612943750478 32.77056750041304
s 6.544271350154504 -7.682405498007462 14.226676848161965 -7.682405498007462
S 1462.9146480713719 6.024415025868542 1462.9146480713719 32.77056750041304
z" fill="none" stroke="none"></path>
<circle cx="0" cy="0" r="1.9233914249185373" fill="#ffffff">
  <animateMotion begin="-9.85474732858984s" dur="10s" repeatCount="indefinite">
    <mpath xlink:href="#path67"></mpath>
  </animateMotion>
</circle><path id="path68" d="M 966.8019785264199 573.1494011849737
c 0 33.297812627102566 -8.147337132163392 9.564265329061374 -17.711602461224768 9.564265329061374
S 931.3787736039704 606.4472138120763 931.3787736039704 573.1494011849737
s 8.147337132163392 -9.564265329061374 17.711602461224768 -9.564265329061374
S 966.8019785264199 539.8515885578712 966.8019785264199 573.1494011849737
z" fill="none" stroke="none"></path>
<circle cx="0" cy="0" r="1.6307611388207996" fill="#ffffff">
  <animateMotion begin="-7.086695786574342s" dur="10s" repeatCount="indefinite">
    <mpath xlink:href="#path68"></mpath>
  </animateMotion>
</circle><path id="path69" d="M 750.7696073442494 553.7123687240006
c 0 30.429484598914218 -7.445512189096031 8.740383874156212 -16.185896063252244 8.740383874156212
S 718.3978152177449 584.1418533229148 718.3978152177449 553.7123687240006
s 7.445512189096031 -8.740383874156212 16.185896063252244 -8.740383874156212
S 750.7696073442494 523.2828841250864 750.7696073442494 553.7123687240006
z" fill="none" stroke="none"></path>
<circle cx="0" cy="0" r="1.8277261555544895" fill="#ffffff">
  <animateMotion begin="-9.41823849328755s" dur="10s" repeatCount="indefinite">
    <mpath xlink:href="#path69"></mpath>
  </animateMotion>
</circle><path id="path70" d="M 1532.4035122384712 282.97689515928676
c 0 19.366276950586897 -4.738557126207432 5.562654017721769 -10.301211143929201 5.562654017721769
S 1511.801089950613 302.34317210987365 1511.801089950613 282.97689515928676
s 4.738557126207432 -5.562654017721769 10.301211143929201 -5.562654017721769
S 1532.4035122384712 263.61061820869986 1532.4035122384712 282.97689515928676
z" fill="none" stroke="none"></path>
<circle cx="0" cy="0" r="1.703273431260745" fill="#ffffff">
  <animateMotion begin="-6.132180788791109s" dur="10s" repeatCount="indefinite">
    <mpath xlink:href="#path70"></mpath>
  </animateMotion>
</circle><path id="path71" d="M 714.548502047897 475.1141430220113
c 0 36.19270356948239 -8.855661511681859 10.39577655719175 -19.25143806887361 10.39577655719175
S 676.0456259101497 511.3068465914937 676.0456259101497 475.1141430220113
s 8.855661511681859 -10.39577655719175 19.25143806887361 -10.39577655719175
S 714.548502047897 438.92143945252894 714.548502047897 475.1141430220113
z" fill="none" stroke="none"></path>
<circle cx="0" cy="0" r="1.9857584171770808" fill="#ffffff">
  <animateMotion begin="-2.205287312509139s" dur="10s" repeatCount="indefinite">
    <mpath xlink:href="#path71"></mpath>
  </animateMotion>
</circle><path id="path72" d="M 1198.3477904864671 423.51130968583044
c 0 32.823631107696805 -8.03131399443645 9.428064254338445 -17.459378248774897 9.428064254338445
S 1163.4290339889171 456.33494079352727 1163.4290339889171 423.51130968583044
s 8.03131399443645 -9.428064254338445 17.459378248774897 -9.428064254338445
S 1198.3477904864671 390.6876785781336 1198.3477904864671 423.51130968583044
z" fill="none" stroke="none"></path>
<circle cx="0" cy="0" r="1.6823668961230136" fill="#ffffff">
  <animateMotion begin="-9.457094724488114s" dur="10s" repeatCount="indefinite">
    <mpath xlink:href="#path72"></mpath>
  </animateMotion>
</circle><path id="path73" d="M 742.5775716467036 971.4550337372816
c 0 24.67614993282538 -6.037781366542379 7.087830299854098 -13.125611666396477 7.087830299854098
S 716.3263483139107 996.131183670107 716.3263483139107 971.4550337372816
s 6.037781366542379 -7.087830299854098 13.125611666396477 -7.087830299854098
S 742.5775716467036 946.7788838044562 742.5775716467036 971.4550337372816
z" fill="none" stroke="none"></path>
<circle cx="0" cy="0" r="2.3321089427338757" fill="#ffffff">
  <animateMotion begin="-2.4870106214631127s" dur="10s" repeatCount="indefinite">
    <mpath xlink:href="#path73"></mpath>
  </animateMotion>
</circle><path id="path74" d="M 1374.7029076395252 760.549696381124
c 0 19.86642529970451 -4.860933849927699 5.706313649915126 -10.567247499842825 5.706313649915126
S 1353.5684126398396 780.4161216808285 1353.5684126398396 760.549696381124
s 4.860933849927699 -5.706313649915126 10.567247499842825 -5.706313649915126
S 1374.7029076395252 740.6832710814195 1374.7029076395252 760.549696381124
z" fill="none" stroke="none"></path>
<circle cx="0" cy="0" r="1.7936643529228" fill="#ffffff">
  <animateMotion begin="-7.055562385665317s" dur="10s" repeatCount="indefinite">
    <mpath xlink:href="#path74"></mpath>
  </animateMotion>
</circle><path id="path75" d="M 1374.167481346017 703.2684259771856
c 0 30.773252391809937 -7.52962558523009 8.839125687009238 -16.36875127223933 8.839125687009238
S 1341.4299788015385 734.0416783689956 1341.4299788015385 703.2684259771856
s 7.52962558523009 -8.839125687009238 16.36875127223933 -8.839125687009238
S 1374.167481346017 672.4951735853757 1374.167481346017 703.2684259771856
z" fill="none" stroke="none"></path>
<circle cx="0" cy="0" r="2.8736482746670657" fill="#ffffff">
  <animateMotion begin="-5.558595199080376s" dur="10s" repeatCount="indefinite">
    <mpath xlink:href="#path75"></mpath>
  </animateMotion>
</circle><path id="path76" d="M 1742.215268416528 864.6339184964336
c 0 34.73122087142844 -8.498064681306957 9.97598897370817 -18.474053655015126 9.97598897370817
S 1705.267161106498 899.3651393678621 1705.267161106498 864.6339184964336
s 8.498064681306957 -9.97598897370817 18.474053655015126 -9.97598897370817
S 1742.215268416528 829.9026976250051 1742.215268416528 864.6339184964336
z" fill="none" stroke="none"></path>
<circle cx="0" cy="0" r="2.6696472468460266" fill="#ffffff">
  <animateMotion begin="-6.335642977970249s" dur="10s" repeatCount="indefinite">
    <mpath xlink:href="#path76"></mpath>
  </animateMotion>
</circle></g>
</svg>