<svg xmlns="http://www.w3.org/2000/svg" xmlns:xlink="http://www.w3.org/1999/xlink" style="margin:auto;background:#ffffff;display:block;z-index:1;position:relative" width="1920" height="1080" preserveAspectRatio="xMidYMid" viewBox="0 0 1920 1080">
<g transform=""><path id="path0" d="M 70.50987958071325 185.2800571066694
c 0 22.576728939603456 -5.524093251179568 6.484805120949929 -12.008898372129497 6.484805120949929
S 46.49208283645426 207.85678604627287 46.49208283645426 185.2800571066694
s 5.524093251179568 -6.484805120949929 12.008898372129497 -6.484805120949929
S 70.50987958071325 162.70332816706593 70.50987958071325 185.2800571066694
z" fill="none" stroke="none"></path>
<circle cx="0" cy="0" r="4.973215589332407" fill="#e0ff77">
  <animateMotion begin="-3.6789708683673106s" dur="10s" repeatCount="indefinite">
    <mpath xlink:href="#path0"></mpath>
  </animateMotion>
</circle><path id="path1" d="M 689.1453830420111 1003.6702317937984
c 0 29.89171218771354 -7.313929577844802 8.585917330513464 -15.899846908358267 8.585917330513464
S 657.3456892252944 1033.5619439815118 657.3456892252944 1003.6702317937984
s 7.313929577844802 -8.585917330513464 15.899846908358267 -8.585917330513464
S 689.1453830420111 973.7785196060848 689.1453830420111 1003.6702317937984
z" fill="none" stroke="none"></path>
<circle cx="0" cy="0" r="4.867470090764356" fill="#de9dd6">
  <animateMotion begin="-4.145067769120736s" dur="10s" repeatCount="indefinite">
    <mpath xlink:href="#path1"></mpath>
  </animateMotion>
</circle><path id="path2" d="M 1031.5848529080752 533.8752239545807
c 0 34.79552809752112 -8.513799428116869 9.994460198224152 -18.50825962634102 9.994460198224152
S 994.5683336553932 568.6707520521019 994.5683336553932 533.8752239545807
s 8.513799428116869 -9.994460198224152 18.50825962634102 -9.994460198224152
S 1031.5848529080752 499.0796958570596 1031.5848529080752 533.8752239545807
z" fill="none" stroke="none"></path>
<circle cx="0" cy="0" r="5.005923825883276" fill="#de9dd6">
  <animateMotion begin="-3.829345235470938s" dur="10s" repeatCount="indefinite">
    <mpath xlink:href="#path2"></mpath>
  </animateMotion>
</circle><path id="path3" d="M 1775.9195242396622 740.7463540806934
c 0 26.107339686333116 -6.3879660934644855 7.498916718414832 -13.886882811879318 7.498916718414832
S 1748.1457586159036 766.8536937670266 1748.1457586159036 740.7463540806934
s 6.3879660934644855 -7.498916718414832 13.886882811879318 -7.498916718414832
S 1775.9195242396622 714.6390143943603 1775.9195242396622 740.7463540806934
z" fill="none" stroke="none"></path>
<circle cx="0" cy="0" r="3.897228359159651" fill="#e0ff77">
  <animateMotion begin="-3.9668275473494563s" dur="10s" repeatCount="indefinite">
    <mpath xlink:href="#path3"></mpath>
  </animateMotion>
</circle><path id="path4" d="M 397.89101086945834 767.8640648462734
c 0 30.655218346788356 -7.500744914639704 8.805222291098783 -16.305967205738487 8.805222291098783
S 365.2790764579813 798.5192831930618 365.2790764579813 767.8640648462734
s 7.500744914639704 -8.805222291098783 16.305967205738487 -8.805222291098783
S 397.89101086945834 737.208846499485 397.89101086945834 767.8640648462734
z" fill="none" stroke="none"></path>
<circle cx="0" cy="0" r="3.284238211060983" fill="#de9dd6">
  <animateMotion begin="-6.841092314185295s" dur="10s" repeatCount="indefinite">
    <mpath xlink:href="#path4"></mpath>
  </animateMotion>
</circle><path id="path5" d="M 716.6150234604977 229.3444414609824
c 0 33.25974453157493 -8.138022598151313 9.553330876090673 -17.691353474241986 9.553330876090673
S 681.2323165120138 262.60418599255735 681.2323165120138 229.3444414609824
s 8.138022598151313 -9.553330876090673 17.691353474241986 -9.553330876090673
S 716.6150234604977 196.08469692940747 716.6150234604977 229.3444414609824
z" fill="none" stroke="none"></path>
<circle cx="0" cy="0" r="3.210253736791546" fill="#ff708e">
  <animateMotion begin="-9.380018230847213s" dur="10s" repeatCount="indefinite">
    <mpath xlink:href="#path5"></mpath>
  </animateMotion>
</circle><path id="path6" d="M 941.2445620450961 229.5536667196173
c 0 20.012832168908037 -4.896756807286009 5.748366686814011 -10.64512349410002 5.748366686814011
S 919.954315056896 249.56649888852533 919.954315056896 229.5536667196173
s 4.896756807286009 -5.748366686814011 10.64512349410002 -5.748366686814011
S 941.2445620450961 209.54083455070926 941.2445620450961 229.5536667196173
z" fill="none" stroke="none"></path>
<circle cx="0" cy="0" r="4.5354890654626585" fill="#ff708e">
  <animateMotion begin="-0.38376241963359314s" dur="10s" repeatCount="indefinite">
    <mpath xlink:href="#path6"></mpath>
  </animateMotion>
</circle><path id="path7" d="M 976.8607210283484 910.9118704095566
c 0 19.99815131992995 -4.893164684663711 5.744149847213922 -10.637314531877633 5.744149847213922
S 955.586091964593 930.9100217294866 955.586091964593 910.9118704095566
s 4.893164684663711 -5.744149847213922 10.637314531877633 -5.744149847213922
S 976.8607210283484 890.9137190896266 976.8607210283484 910.9118704095566
z" fill="none" stroke="none"></path>
<circle cx="0" cy="0" r="4.23550689938603" fill="#de9dd6">
  <animateMotion begin="-5.443624048844962s" dur="10s" repeatCount="indefinite">
    <mpath xlink:href="#path7"></mpath>
  </animateMotion>
</circle><path id="path8" d="M 485.5335878086114 398.6314204633006
c 0 24.831228627231326 -6.075726153471494 7.13237418016219 -13.208100333633684 7.13237418016219
S 459.117387141344 423.46264909053195 459.117387141344 398.6314204633006
s 6.075726153471494 -7.13237418016219 13.208100333633684 -7.13237418016219
S 485.5335878086114 373.8001918360693 485.5335878086114 398.6314204633006
z" fill="none" stroke="none"></path>
<circle cx="0" cy="0" r="4.050973176084491" fill="#de9dd6">
  <animateMotion begin="-4.841646084045335s" dur="10s" repeatCount="indefinite">
    <mpath xlink:href="#path8"></mpath>
  </animateMotion>
</circle><path id="path9" d="M 245.65222885402133 315.98975603035274
c 0 36.94992505252721 -9.040939108597081 10.613276344874837 -19.65421545347192 10.613276344874837
S 206.3437979470775 352.93968108287993 206.3437979470775 315.98975603035274
s 9.040939108597081 -10.613276344874837 19.65421545347192 -10.613276344874837
S 245.65222885402133 279.03983097782555 245.65222885402133 315.98975603035274
z" fill="none" stroke="none"></path>
<circle cx="0" cy="0" r="4.267768458171798" fill="#51cacc">
  <animateMotion begin="-2.4148707562280736s" dur="10s" repeatCount="indefinite">
    <mpath xlink:href="#path9"></mpath>
  </animateMotion>
</circle><path id="path10" d="M 906.603761623326 839.5210942658106
c 0 29.268072912844232 -7.161336989312949 8.406786900497812 -15.56812388981076 8.406786900497812
S 875.4675138437045 868.7891671786548 875.4675138437045 839.5210942658106
s 7.161336989312949 -8.406786900497812 15.56812388981076 -8.406786900497812
S 906.603761623326 810.2530213529664 906.603761623326 839.5210942658106
z" fill="none" stroke="none"></path>
<circle cx="0" cy="0" r="3.189899252603806" fill="#9df871">
  <animateMotion begin="-0.4762098082201738s" dur="10s" repeatCount="indefinite">
    <mpath xlink:href="#path10"></mpath>
  </animateMotion>
</circle><path id="path11" d="M 1477.68776300529 244.66235452459702
c 0 20.046873567493513 -4.905086085663306 5.758144535343881 -10.663230621007187 5.758144535343881
S 1456.3613017632756 264.70922809209054 1456.3613017632756 244.66235452459702
s 4.905086085663306 -5.758144535343881 10.663230621007187 -5.758144535343881
S 1477.68776300529 224.6154809571035 1477.68776300529 244.66235452459702
z" fill="none" stroke="none"></path>
<circle cx="0" cy="0" r="5.733487566676933" fill="#ff708e">
  <animateMotion begin="-9.079977373161924s" dur="10s" repeatCount="indefinite">
    <mpath xlink:href="#path11"></mpath>
  </animateMotion>
</circle><path id="path12" d="M 1431.839506668615 396.87666940294685
c 0 28.168520122068408 -6.892297476676312 8.090957907402627 -14.983255384078939 8.090957907402627
S 1401.872995900457 425.04518952501525 1401.872995900457 396.87666940294685
s 6.892297476676312 -8.090957907402627 14.983255384078939 -8.090957907402627
S 1431.839506668615 368.70814928087844 1431.839506668615 396.87666940294685
z" fill="none" stroke="none"></path>
<circle cx="0" cy="0" r="3.6443341828234743" fill="#9df871">
  <animateMotion begin="-6.824133760813595s" dur="10s" repeatCount="indefinite">
    <mpath xlink:href="#path12"></mpath>
  </animateMotion>
</circle><path id="path13" d="M 642.8001336143915 980.8711590084079
c 0 19.773179474310584 -4.838118382012163 5.6795302745360186 -10.517648656548182 5.6795302745360186
S 621.7648363012951 1000.6443384827185 621.7648363012951 980.8711590084079
s 4.838118382012163 -5.6795302745360186 10.517648656548182 -5.6795302745360186
S 642.8001336143915 961.0979795340972 642.8001336143915 980.8711590084079
z" fill="none" stroke="none"></path>
<circle cx="0" cy="0" r="4.1609903565646205" fill="#e0ff77">
  <animateMotion begin="-7.168557694217386s" dur="10s" repeatCount="indefinite">
    <mpath xlink:href="#path13"></mpath>
  </animateMotion>
</circle><path id="path14" d="M 1536.505462505996 345.48545566875475
c 0 28.347347140723468 -6.936053023794039 8.142323114888656 -15.078376138682694 8.142323114888656
S 1506.3487102286308 373.8328028094782 1506.3487102286308 345.48545566875475
s 6.936053023794039 -8.142323114888656 15.078376138682694 -8.142323114888656
S 1536.505462505996 317.1381085280313 1536.505462505996 345.48545566875475
z" fill="none" stroke="none"></path>
<circle cx="0" cy="0" r="3.5877795281888196" fill="#ff708e">
  <animateMotion begin="-9.846092999524423s" dur="10s" repeatCount="indefinite">
    <mpath xlink:href="#path14"></mpath>
  </animateMotion>
</circle><path id="path15" d="M 1687.9989870516702 955.0700599278381
c 0 29.616462754570183 -7.2465813122884475 8.506856323121223 -15.753437635409671 8.506856323121223
S 1656.4921117808508 984.6865226824083 1656.4921117808508 955.0700599278381
s 7.2465813122884475 -8.506856323121223 15.753437635409671 -8.506856323121223
S 1687.9989870516702 925.4535971732679 1687.9989870516702 955.0700599278381
z" fill="none" stroke="none"></path>
<circle cx="0" cy="0" r="4.671128814629911" fill="#ff708e">
  <animateMotion begin="-2.0175290851138628s" dur="10s" repeatCount="indefinite">
    <mpath xlink:href="#path15"></mpath>
  </animateMotion>
</circle><path id="path16" d="M 996.7120320110737 623.7476385803267
c 0 20.774423602179898 -5.083103647341889 5.967121672966567 -11.050225320308456 5.967121672966567
S 974.6115813704569 644.5220621825066 974.6115813704569 623.7476385803267
s 5.083103647341889 -5.967121672966567 11.050225320308456 -5.967121672966567
S 996.7120320110737 602.9732149781468 996.7120320110737 623.7476385803267
z" fill="none" stroke="none"></path>
<circle cx="0" cy="0" r="3.7797318357103817" fill="#e0ff77">
  <animateMotion begin="-7.318379486879481s" dur="10s" repeatCount="indefinite">
    <mpath xlink:href="#path16"></mpath>
  </animateMotion>
</circle><path id="path17" d="M 1851.0521641074818 62.394069020323705
c 0 19.305621074350842 -4.723715794787972 5.54523158518588 -10.268947379973852 5.54523158518588
S 1830.5142693475339 81.69969009467455 1830.5142693475339 62.394069020323705
s 4.723715794787972 -5.54523158518588 10.268947379973852 -5.54523158518588
S 1851.0521641074818 43.08844794597286 1851.0521641074818 62.394069020323705
z" fill="none" stroke="none"></path>
<circle cx="0" cy="0" r="4.439843454898556" fill="#ff708e">
  <animateMotion begin="-6.1182360561021865s" dur="10s" repeatCount="indefinite">
    <mpath xlink:href="#path17"></mpath>
  </animateMotion>
</circle><path id="path18" d="M 246.92937956939576 448.53760630401746
c 0 37.44295258791413 -9.161573505553456 10.754890636954057 -19.916464142507515 10.754890636954057
S 207.09645128438072 485.9805588919316 207.09645128438072 448.53760630401746
s 9.161573505553456 -10.754890636954057 19.916464142507515 -10.754890636954057
S 246.92937956939576 411.0946537161033 246.92937956939576 448.53760630401746
z" fill="none" stroke="none"></path>
<circle cx="0" cy="0" r="3.209206904403114" fill="#9df871">
  <animateMotion begin="-6.342803042507407s" dur="10s" repeatCount="indefinite">
    <mpath xlink:href="#path18"></mpath>
  </animateMotion>
</circle><path id="path19" d="M 32.864059772783705 942.0589286918936
c 0 27.97280021968278 -6.844408564390467 8.034740488632288 -14.879149053022756 8.034740488632288
S 3.1057616667381946 970.0317289115764 3.1057616667381946 942.0589286918936
s 6.844408564390467 -8.034740488632288 14.879149053022756 -8.034740488632288
S 32.864059772783705 914.0861284722108 32.864059772783705 942.0589286918936
z" fill="none" stroke="none"></path>
<circle cx="0" cy="0" r="3.423180181498977" fill="#51cacc">
  <animateMotion begin="-5.449209610895012s" dur="10s" repeatCount="indefinite">
    <mpath xlink:href="#path19"></mpath>
  </animateMotion>
</circle><path id="path20" d="M 1591.445917222412 799.2749550254917
c 0 36.781517082037254 -8.999732903051667 10.564903842712829 -19.564636745764496 10.564903842712829
S 1552.3166437308828 836.056472107529 1552.3166437308828 799.2749550254917
s 8.999732903051667 -10.564903842712829 19.564636745764496 -10.564903842712829
S 1591.445917222412 762.4934379434545 1591.445917222412 799.2749550254917
z" fill="none" stroke="none"></path>
<circle cx="0" cy="0" r="3.0635677932204928" fill="#de9dd6">
  <animateMotion begin="-8.760568556970776s" dur="10s" repeatCount="indefinite">
    <mpath xlink:href="#path20"></mpath>
  </animateMotion>
</circle><path id="path21" d="M 1273.486676041899 1049.6406672208052
c 0 25.67901017494287 -6.283162064081766 7.375885901313378 -13.659047965395143 7.375885901313378
S 1246.168580111109 1075.3196773957482 1246.168580111109 1049.6406672208052
s 6.283162064081766 -7.375885901313378 13.659047965395143 -7.375885901313378
S 1273.486676041899 1023.9616570458624 1273.486676041899 1049.6406672208052
z" fill="none" stroke="none"></path>
<circle cx="0" cy="0" r="3.03786857581023" fill="#de9dd6">
  <animateMotion begin="-0.6330314340202436s" dur="10s" repeatCount="indefinite">
    <mpath xlink:href="#path21"></mpath>
  </animateMotion>
</circle><path id="path22" d="M 882.5985616989916 1008.6994917649176
c 0 35.61648481265327 -8.714671815861967 10.230266914272747 -18.944938730134716 10.230266914272747
S 844.7086842387222 1044.3159765775708 844.7086842387222 1008.6994917649176
s 8.714671815861967 -10.230266914272747 18.944938730134716 -10.230266914272747
S 882.5985616989916 973.0830069522643 882.5985616989916 1008.6994917649176
z" fill="none" stroke="none"></path>
<circle cx="0" cy="0" r="3.211734973034023" fill="#e0ff77">
  <animateMotion begin="-0.01687838086638971s" dur="10s" repeatCount="indefinite">
    <mpath xlink:href="#path22"></mpath>
  </animateMotion>
</circle><path id="path23" d="M 789.700724977951 841.9496908343857
c 0 30.523168342255634 -7.468434807147654 8.767293034477682 -16.235727841625337 8.767293034477682
S 757.2292692947003 872.4728591766414 757.2292692947003 841.9496908343857
s 7.468434807147654 -8.767293034477682 16.235727841625337 -8.767293034477682
S 789.700724977951 811.4265224921301 789.700724977951 841.9496908343857
z" fill="none" stroke="none"></path>
<circle cx="0" cy="0" r="3.106261070308224" fill="#e0ff77">
  <animateMotion begin="-3.00941697311528s" dur="10s" repeatCount="indefinite">
    <mpath xlink:href="#path23"></mpath>
  </animateMotion>
</circle><path id="path24" d="M 790.8882811871825 1028.6889669779357
c 0 20.89748307590487 -5.113213944104382 6.0024685430790585 -11.11568248718344 6.0024685430790585
S 768.6569162128156 1049.5864500538405 768.6569162128156 1028.6889669779357
s 5.113213944104382 -6.0024685430790585 11.11568248718344 -6.0024685430790585
S 790.8882811871825 1007.7914839020308 790.8882811871825 1028.6889669779357
z" fill="none" stroke="none"></path>
<circle cx="0" cy="0" r="5.132115971756576" fill="#9df871">
  <animateMotion begin="-0.1808435819953269s" dur="10s" repeatCount="indefinite">
    <mpath xlink:href="#path24"></mpath>
  </animateMotion>
</circle><path id="path25" d="M 95.29618504001246 370.44522577558047
c 0 37.0069575680558 -9.05489387303493 10.629658024867092 -19.684551897902022 10.629658024867092
S 55.92708124420841 407.45218334363625 55.92708124420841 370.44522577558047
s 9.05489387303493 -10.629658024867092 19.684551897902022 -10.629658024867092
S 95.29618504001246 333.4382682075247 95.29618504001246 370.44522577558047
z" fill="none" stroke="none"></path>
<circle cx="0" cy="0" r="5.613830061270611" fill="#9df871">
  <animateMotion begin="-2.0273595205608808s" dur="10s" repeatCount="indefinite">
    <mpath xlink:href="#path25"></mpath>
  </animateMotion>
</circle><path id="path26" d="M 989.3007310784177 733.6173787070388
c 0 23.37448847934353 -5.719289734307459 6.713948818534844 -12.433238552842303 6.713948818534844
S 964.434253972733 756.9918671863824 964.434253972733 733.6173787070388
s 5.719289734307459 -6.713948818534844 12.433238552842303 -6.713948818534844
S 989.3007310784177 710.2428902276953 989.3007310784177 733.6173787070388
z" fill="none" stroke="none"></path>
<circle cx="0" cy="0" r="5.3569353946573575" fill="#de9dd6">
  <animateMotion begin="-8.282821141512029s" dur="10s" repeatCount="indefinite">
    <mpath xlink:href="#path26"></mpath>
  </animateMotion>
</circle><path id="path27" d="M 1344.587084834084 726.9502458584722
c 0 21.354574465786232 -5.225055454394503 6.133760750810939 -11.358816205205443 6.133760750810939
S 1321.8694524236732 748.3048203242583 1321.8694524236732 726.9502458584722
s 5.225055454394503 -6.133760750810939 11.358816205205443 -6.133760750810939
S 1344.587084834084 705.595671392686 1344.587084834084 726.9502458584722
z" fill="none" stroke="none"></path>
<circle cx="0" cy="0" r="3.5956544597558673" fill="#de9dd6">
  <animateMotion begin="-1.4743008875468733s" dur="10s" repeatCount="indefinite">
    <mpath xlink:href="#path27"></mpath>
  </animateMotion>
</circle><path id="path28" d="M 213.65344294214927 746.4753148653201
c 0 21.242710250107514 -5.1976844228986465 6.101629539924499 -11.299313962823145 6.101629539924499
S 191.054815016503 767.7180251154276 191.054815016503 746.4753148653201
s 5.1976844228986465 -6.101629539924499 11.299313962823145 -6.101629539924499
S 213.65344294214927 725.2326046152126 213.65344294214927 746.4753148653201
z" fill="none" stroke="none"></path>
<circle cx="0" cy="0" r="4.389005526581993" fill="#51cacc">
  <animateMotion begin="-6.9329930594471145s" dur="10s" repeatCount="indefinite">
    <mpath xlink:href="#path28"></mpath>
  </animateMotion>
</circle><path id="path29" d="M 809.7464837356023 944.2772910224219
c 0 28.268510325802108 -6.916763164823919 8.119678497836777 -15.036441662660696 8.119678497836777
S 779.673600410281 972.545801348224 779.673600410281 944.2772910224219
s 6.916763164823919 -8.119678497836777 15.036441662660696 -8.119678497836777
S 809.7464837356023 916.0087806966197 809.7464837356023 944.2772910224219
z" fill="none" stroke="none"></path>
<circle cx="0" cy="0" r="5.6160653419224245" fill="#51cacc">
  <animateMotion begin="-8.814673911084434s" dur="10s" repeatCount="indefinite">
    <mpath xlink:href="#path29"></mpath>
  </animateMotion>
</circle><path id="path30" d="M 1633.9873463310034 357.866556609006
c 0 25.221419667000205 -6.171198429159624 7.244450329883038 -13.415648759042663 7.244450329883038
S 1607.1560488129182 383.0879762760062 1607.1560488129182 357.866556609006
s 6.171198429159624 -7.244450329883038 13.415648759042663 -7.244450329883038
S 1633.9873463310034 332.6451369420058 1633.9873463310034 357.866556609006
z" fill="none" stroke="none"></path>
<circle cx="0" cy="0" r="5.89436009736599" fill="#9df871">
  <animateMotion begin="-9.262693383945127s" dur="10s" repeatCount="indefinite">
    <mpath xlink:href="#path30"></mpath>
  </animateMotion>
</circle><path id="path31" d="M 849.1805185369568 1055.32714314625
c 0 34.38697065180047 -8.413833244589474 9.877108591474602 -18.290941836064075 9.877108591474602
S 812.5986348648286 1089.7141137980504 812.5986348648286 1055.32714314625
s 8.413833244589474 -9.877108591474602 18.290941836064075 -9.877108591474602
S 849.1805185369568 1020.9401724944495 849.1805185369568 1055.32714314625
z" fill="none" stroke="none"></path>
<circle cx="0" cy="0" r="5.077563830536731" fill="#e0ff77">
  <animateMotion begin="-7.260145154475719s" dur="10s" repeatCount="indefinite">
    <mpath xlink:href="#path31"></mpath>
  </animateMotion>
</circle><path id="path32" d="M 513.9256662751507 486.1103914857482
c 0 24.687843084027215 -6.040642456730063 7.091188970943987 -13.13183142767405 7.091188970943987
S 487.6620034198026 510.79823456977545 487.6620034198026 486.1103914857482
s 6.040642456730063 -7.091188970943987 13.13183142767405 -7.091188970943987
S 513.9256662751507 461.422548401721 513.9256662751507 486.1103914857482
z" fill="none" stroke="none"></path>
<circle cx="0" cy="0" r="5.114728002371699" fill="#ff708e">
  <animateMotion begin="-1.4475942607808023s" dur="10s" repeatCount="indefinite">
    <mpath xlink:href="#path32"></mpath>
  </animateMotion>
</circle><path id="path33" d="M 1218.2561740457354 660.9965507618446
c 0 30.651662286688918 -7.4998748148281384 8.80420086958086 -16.304075684409 8.80420086958086
S 1185.6480226769172 691.6482130485335 1185.6480226769172 660.9965507618446
s 7.4998748148281384 -8.80420086958086 16.304075684409 -8.80420086958086
S 1218.2561740457354 630.3448884751556 1218.2561740457354 660.9965507618446
z" fill="none" stroke="none"></path>
<circle cx="0" cy="0" r="4.30317014805937" fill="#ff708e">
  <animateMotion begin="-5.8612318826430005s" dur="10s" repeatCount="indefinite">
    <mpath xlink:href="#path33"></mpath>
  </animateMotion>
</circle><path id="path34" d="M 283.30624781939065 53.717255222695584
c 0 24.633803468078714 -6.027419997508621 7.075666953597078 -13.103086951105698 7.075666953597078
S 257.10007391717926 78.3510586907743 257.10007391717926 53.717255222695584
s 6.027419997508621 -7.075666953597078 13.103086951105698 -7.075666953597078
S 283.30624781939065 29.08345175461687 283.30624781939065 53.717255222695584
z" fill="none" stroke="none"></path>
<circle cx="0" cy="0" r="5.322515723681712" fill="#de9dd6">
  <animateMotion begin="-9.26104994962634s" dur="10s" repeatCount="indefinite">
    <mpath xlink:href="#path34"></mpath>
  </animateMotion>
</circle><path id="path35" d="M 1881.9406233306092 223.72031798342533
c 0 36.90667715009026 -9.030357175022084 10.600854075025927 -19.63121125004801 10.600854075025927
S 1842.6782008305133 260.6269951335156 1842.6782008305133 223.72031798342533
s 9.030357175022084 -10.600854075025927 19.63121125004801 -10.600854075025927
S 1881.9406233306092 186.81364083333506 1881.9406233306092 223.72031798342533
z" fill="none" stroke="none"></path>
<circle cx="0" cy="0" r="4.437635632947478" fill="#51cacc">
  <animateMotion begin="-5.774955001609506s" dur="10s" repeatCount="indefinite">
    <mpath xlink:href="#path35"></mpath>
  </animateMotion>
</circle><path id="path36" d="M 225.83296339062807 810.5197393621984
c 0 19.260084890538277 -4.712573962578515 5.532152043026953 -10.244726005605466 5.532152043026953
S 205.34351137941715 829.7798242527366 205.34351137941715 810.5197393621984
s 4.712573962578515 -5.532152043026953 10.244726005605466 -5.532152043026953
S 225.83296339062807 791.2596544716602 225.83296339062807 810.5197393621984
z" fill="none" stroke="none"></path>
<circle cx="0" cy="0" r="5.070928160561682" fill="#de9dd6">
  <animateMotion begin="-7.195274106896563s" dur="10s" repeatCount="indefinite">
    <mpath xlink:href="#path36"></mpath>
  </animateMotion>
</circle><path id="path37" d="M 1796.4026264224199 405.2800746393917
c 0 19.88511062336483 -4.86550579082331 5.711680710966494 -10.577186501789804 5.711680710966494
S 1775.2482534188402 425.16518526275655 1775.2482534188402 405.2800746393917
s 4.86550579082331 -5.711680710966494 10.577186501789804 -5.711680710966494
S 1796.4026264224199 385.3949640160269 1796.4026264224199 405.2800746393917
z" fill="none" stroke="none"></path>
<circle cx="0" cy="0" r="3.325359349783768" fill="#ff708e">
  <animateMotion begin="-8.2706515588986s" dur="10s" repeatCount="indefinite">
    <mpath xlink:href="#path37"></mpath>
  </animateMotion>
</circle><path id="path38" d="M 177.34362780432485 337.45044371643377
c 0 30.737226285578767 -7.520810686896932 8.828777762879009 -16.34958844977594 8.828777762879009
S 144.64445090477295 368.1876700020125 144.64445090477295 337.45044371643377
s 7.520810686896932 -8.828777762879009 16.34958844977594 -8.828777762879009
S 177.34362780432485 306.713217430855 177.34362780432485 337.45044371643377
z" fill="none" stroke="none"></path>
<circle cx="0" cy="0" r="4.619695355636505" fill="#51cacc">
  <animateMotion begin="-4.242773316742705s" dur="10s" repeatCount="indefinite">
    <mpath xlink:href="#path38"></mpath>
  </animateMotion>
</circle><path id="path39" d="M 1717.380870410636 690.920638248559
c 0 36.59731713598317 -8.954662703485242 10.511995347569632 -19.466658051054875 10.511995347569632
S 1678.4475543085264 727.5179553845422 1678.4475543085264 690.920638248559
s 8.954662703485242 -10.511995347569632 19.466658051054875 -10.511995347569632
S 1717.380870410636 654.3233211125759 1717.380870410636 690.920638248559
z" fill="none" stroke="none"></path>
<circle cx="0" cy="0" r="5.876660319073538" fill="#e0ff77">
  <animateMotion begin="-7.975345305155226s" dur="10s" repeatCount="indefinite">
    <mpath xlink:href="#path39"></mpath>
  </animateMotion>
</circle><path id="path40" d="M 975.5207699596425 960.693517165707
c 0 34.39635819925963 -8.416130197691185 9.879805014680958 -18.295935212372143 9.879805014680958
S 938.9288995348983 995.0898753649667 938.9288995348983 960.693517165707
s 8.416130197691185 -9.879805014680958 18.295935212372143 -9.879805014680958
S 975.5207699596425 926.2971589664473 975.5207699596425 960.693517165707
z" fill="none" stroke="none"></path>
<circle cx="0" cy="0" r="3.961635509544122" fill="#ff708e">
  <animateMotion begin="-9.77992699266787s" dur="10s" repeatCount="indefinite">
    <mpath xlink:href="#path40"></mpath>
  </animateMotion>
</circle><path id="path41" d="M 1305.5620500932755 407.84275057408445
c 0 35.69835219449406 -8.734703196525142 10.253782013312124 -18.98848520983727 10.253782013312124
S 1267.5850796736008 443.5411027685785 1267.5850796736008 407.84275057408445
s 8.734703196525142 -10.253782013312124 18.98848520983727 -10.253782013312124
S 1305.5620500932755 372.14439837959037 1305.5620500932755 407.84275057408445
z" fill="none" stroke="none"></path>
<circle cx="0" cy="0" r="5.31934722728734" fill="#e0ff77">
  <animateMotion begin="-4.603115014088228s" dur="10s" repeatCount="indefinite">
    <mpath xlink:href="#path41"></mpath>
  </animateMotion>
</circle><path id="path42" d="M 1166.4162661996293 516.2777447238375
c 0 26.87472609046029 -6.575730851921134 7.7193362174726365 -14.29506706939377 7.7193362174726365
S 1137.8261320608417 543.1524708142978 1137.8261320608417 516.2777447238375
s 6.575730851921134 -7.7193362174726365 14.29506706939377 -7.7193362174726365
S 1166.4162661996293 489.4030186333772 1166.4162661996293 516.2777447238375
z" fill="none" stroke="none"></path>
<circle cx="0" cy="0" r="3.572099315674271" fill="#51cacc">
  <animateMotion begin="-0.6562351583137049s" dur="10s" repeatCount="indefinite">
    <mpath xlink:href="#path42"></mpath>
  </animateMotion>
</circle><path id="path43" d="M 1447.058890120971 769.3968585291308
c 0 30.493595970977186 -7.461199014175268 8.75879884272749 -16.219997856902758 8.75879884272749
S 1414.6188944071653 799.8904545001079 1414.6188944071653 769.3968585291308
s 7.461199014175268 -8.75879884272749 16.219997856902758 -8.75879884272749
S 1447.058890120971 738.9032625581536 1447.058890120971 769.3968585291308
z" fill="none" stroke="none"></path>
<circle cx="0" cy="0" r="5.060810513978134" fill="#ff708e">
  <animateMotion begin="-1.1179448169645867s" dur="10s" repeatCount="indefinite">
    <mpath xlink:href="#path43"></mpath>
  </animateMotion>
</circle><path id="path44" d="M 1681.7962466107265 754.082532795558
c 0 21.703555993914122 -5.310444551702391 6.234000125911503 -11.544444677613894 6.234000125911503
S 1658.7073572554987 775.7860887894722 1658.7073572554987 754.082532795558
s 5.310444551702391 -6.234000125911503 11.544444677613894 -6.234000125911503
S 1681.7962466107265 732.3789768016438 1681.7962466107265 754.082532795558
z" fill="none" stroke="none"></path>
<circle cx="0" cy="0" r="5.28164997553851" fill="#ff708e">
  <animateMotion begin="-9.392232431392904s" dur="10s" repeatCount="indefinite">
    <mpath xlink:href="#path44"></mpath>
  </animateMotion>
</circle></g>
</svg>