<?xml version="1.0" encoding="utf-8"?>
<!-- Generator: Adobe Illustrator 16.0.0, SVG Export Plug-In . SVG Version: 6.00 Build 0)  -->
<!DOCTYPE svg PUBLIC "-//W3C//DTD SVG 1.1//EN" "http://www.w3.org/Graphics/SVG/1.1/DTD/svg11.dtd">
<svg version="1.1" xmlns="http://www.w3.org/2000/svg" xmlns:xlink="http://www.w3.org/1999/xlink" x="0px" y="0px" width="256px"
	 height="256px" viewBox="0 0 256 256" enable-background="new 0 0 256 256" xml:space="preserve">
<g id="圖層_1">
</g>
<g id="圖層_2">
	<g>
		<g>
			<g>
				<g>
					<path fill="#F2F2F2" d="M180.223,40.866c9.299,5.356,17.772,12.302,24.721,20.293c3.497,3.973,6.66,8.172,9.393,12.535
						c2.734,4.357,5.192,8.793,7.164,13.315c-3.243-7.187-7.282-14.007-12.063-20.254c3.57,4.692,6.425,9.353,8.877,14.234
						c2.451,4.881,4.479,10.012,6.084,15.783c-0.426-0.81-0.872-1.879-1.324-3.054c-0.465-1.17-1.013-2.416-1.509-3.623
						c-0.484-1.212-1.041-2.335-1.54-3.252c-0.497-0.918-0.946-1.625-1.313-1.966c-6.1-12.822-14.796-24.41-25.386-33.872
						c-10.57-9.485-23.133-16.731-36.533-21.081c5.616,0.746,9.891,2.562,13.466,4.65C173.881,36.605,176.826,38.919,180.223,40.866
						z"/>
					<path fill="#F2F2F2" d="M228.456,128c-0.044-1.425-0.089-2.831-0.132-4.224c-0.021-1.393-0.192-2.767-0.279-4.135
						C228.405,122.545,228.494,125.425,228.456,128z"/>
					<path fill="#F2F2F2" d="M36.472,105.464c-0.628,2.989-1.105,6.014-1.52,8.939C35.213,111.436,35.771,108.43,36.472,105.464z"/>
					<path fill="#F2F2F2" d="M144.372,32.07c-1.645-0.186-3.312-0.237-4.992-0.374c-12.482-1.642-25.505-0.967-38.168,2.358
						c6.865-1.852,14.123-3.23,21.475-3.683C130.026,29.915,137.452,30.43,144.372,32.07z"/>
					<path fill="#F2F2F2" d="M157.159,36.855c12.122,3.753,23.438,10.574,31.98,18.896
						C180.471,47.578,169.399,40.897,157.159,36.855z"/>
					<path fill="#F2F2F2" d="M65.721,186c0.08-0.137,0.311-0.06,0.6,0.105c0.262,0.215,0.514,0.391,0.749,0.512
						c3.003,3.395,6.251,6.591,9.751,9.496c-0.933-0.636-1.936-1.063-2.855-1.768c-0.949-0.834-1.633-1.594-2.258-2.238
						c-0.623-0.648-1.147-1.229-1.664-1.844c-0.527-0.604-1.083-1.2-1.782-1.867C67.564,187.729,66.787,186.927,65.721,186z"/>
					<path fill="#F2F2F2" d="M37.299,102.167c0.003-0.108,0.006-0.219,0.009-0.33c0.25-1.019,0.478-2.029,0.793-3.01
						c0.054-0.112,0.104-0.215,0.165-0.339C37.91,99.699,37.617,100.932,37.299,102.167z"/>
					<path fill="#F2F2F2" d="M61.977,181.577c0.164-0.25,0.327-0.505,0.263-0.953c0.721,1.055,1.548,2.022,2.332,3.028
						c0.771,1.018,1.624,1.963,2.463,2.924c-0.255-0.18-0.501-0.35-0.713-0.471c-0.33-0.273-0.68-0.612-1.043-0.982
						c-0.353-0.381-0.703-0.809-1.069-1.229C63.491,183.038,62.691,182.223,61.977,181.577z"/>
					<path fill="#F2F2F2" d="M45.227,127.598c0.029-1.598-0.519-3.041-0.647-3.809c0.64-4.15,1.473-8.223,2.685-12.943
						c0.034-0.762,0.356-2.322,0.433-3.861c0.472-0.802,0.927-1.675,1.371-2.6c-3.128,10.19-4.36,21.261-3.368,32.548
						c-0.184-1.506-0.276-3.039-0.413-4.589C45.254,130.787,45.199,129.206,45.227,127.598z"/>
					<path fill="#F2F2F2" d="M218.867,130.318c0.06,3.934-0.396,8.009-1.059,12.103c-0.724,4.088-1.78,8.176-3.05,12.175
						c-2.627,7.982-6.131,15.534-9.652,22.401c2.615-3.678,5.218-7.929,7.335-12.405c2.149-4.462,3.921-9.084,5.317-13.34
						c2.701-8.541,3.851-15.572,5.196-16.876c1.283-1.346,1.267,5.245-0.816,13.742c-1.009,4.243-2.587,8.899-4.351,13.284
						c-1.795,4.381-3.871,8.44-5.564,11.719c1.13-1.623,1.13-1.623,2.257-3.242c-1.156,1.617-2.202,3.269-2.844,4.904
						c0.622-0.772,1.287-1.79,1.996-2.89c0.717-1.097,1.485-2.272,2.148-3.445c0.7-1.159,1.371-2.271,1.942-3.218
						c0.561-0.951,1.063-1.718,1.459-2.158c0,0-0.189,0.883-0.378,1.766c-0.095,0.443-0.19,0.888-0.262,1.22
						c-0.071,0.334-0.137,0.549-0.137,0.549c2.883-4.33,5.91-11.226,7.951-18.489c2.077-7.258,3.16-14.792,4.108-20.117
						c-1.525,12.969-4.972,26.782-11.48,39.942c-3.229,6.576-7.169,12.983-11.806,19.015c-4.672,6.005-10.056,11.609-16.041,16.632
						c-5.994,5.014-12.656,9.349-19.733,12.941c-7.087,3.582-14.661,6.262-22.413,8.081c-7.755,1.841-15.726,2.604-23.593,2.524
						c-7.869-0.107-15.684-1.08-23.115-3.045c-8.341-2.047-16.359-4.963-23.787-8.817c-3.755-1.857-7.29-4.053-10.769-6.291
						c-3.403-2.341-6.746-4.756-9.84-7.433c-3.159-2.608-6.057-5.471-8.887-8.376c-2.735-2.984-5.399-6.029-7.782-9.266
						c-4.813-6.43-8.952-13.313-12.159-20.55c-1.118-2.764-2.813-7.581-3.914-13.099c-1.161-5.502-1.836-11.631-2.016-16.746
						c-0.641-9.031-0.184-18.168,1.372-27.146c0.462-2.227,0.817-4.484,1.407-6.685l0.821-3.319l0.965-3.28l0.485-1.641l0.555-1.616
						l1.113-3.236l1.25-3.184c0.407-1.067,0.838-2.123,1.317-3.158c8.167-17.676,21.655-32.484,38.204-42.771
						c16.545-10.316,36.267-16.169,56.974-16.381c2.062-0.001,4.316,0.203,6.2,0.51c1.884,0.371,3.397,0.812,4.017,1.208
						c0.62,0.397,0.348,0.748-1.311,0.951c-0.83,0.111-2.005,0.148-3.591,0.208c-1.587,0.116-3.584,0.106-6.054,0.247
						c-8.176,0.523-16.312,1.863-24.23,4.039c-7.911,2.206-15.575,5.299-22.839,9.146c0.333-0.389,1.034-0.88,1.947-1.432
						c0.457-0.276,0.965-0.566,1.508-0.867c0.557-0.271,1.143-0.557,1.742-0.849c1.209-0.559,2.444-1.2,3.627-1.702
						c1.176-0.52,2.246-1.028,3.052-1.5c-5.817,1.908-10.942,4.246-15.814,6.958c-4.866,2.726-9.489,5.851-14.118,9.713
						c6.173-5.153,12.927-9.598,20.114-13.242c-8.977,4.542-17.829,10.56-25.606,18.085C48.397,60.021,41.71,69,36.655,78.729
						c-1.828,3.566-4.036,6.685-5.937,10.476c-1.967,3.744-3.59,8.196-4.128,13.953c1.908-6.935,4.555-13.701,7.875-20.135
						c3.338-6.426,7.35-12.514,11.93-18.139c9.165-11.246,20.578-20.677,33.392-27.477c-0.037,0.041-0.084,0.083-0.104,0.119
						c11.373-6.183,22.815-9.604,35.161-11.265c-0.957,0.157-1.923,0.281-2.874,0.472c-0.95,0.192-1.896,0.382-2.827,0.57
						c-1.871,0.33-3.653,0.798-5.336,1.106l3.34-0.641c1.117-0.184,2.239-0.332,3.355-0.5c2.227-0.375,4.48-0.512,6.712-0.758
						c4.482-0.298,8.955-0.47,13.409-0.237c4.456,0.132,8.886,0.668,13.276,1.348c2.183,0.428,4.381,0.765,6.532,1.328
						c1.079,0.265,2.164,0.504,3.236,0.792l3.197,0.934c-12.19-2.943-25.093-3.886-37.912-2.491
						c-12.82,1.361-25.564,5.109-37.148,11.173c-11.59,6.04-22,14.369-30.325,24.285c-8.341,9.9-14.57,21.382-18.199,33.305
						c2.784-6.447,5.95-13.906,10-20.701c4.039-6.775,8.893-12.848,13.671-16.634c-3.913,4.068-7.505,8.456-10.707,13.133
						c-3.185,4.688-5.988,9.651-8.367,14.836c-4.763,10.363-7.818,21.642-8.777,33.262c0.016-0.867,0.032-1.723,0.048-2.576
						c0.011-0.854,0.083-1.698,0.111-2.548c-1.347,7.147-1.51,14.743-0.736,22.226c0.779,7.493,2.547,14.844,4.759,21.771
						c0.405,1.238,0.749,2.487,1.23,3.707c-0.467-1.204-0.818-2.467-1.23-3.707c-4-12.773-5.291-26.056-4.182-38.872
						c-0.102,5.907-0.093,12.159,0.672,19.611c-0.015-2.031-0.033-4.497-0.053-7.187c0.065-2.685,0.079-5.581,0.323-8.468
						c0.274-7.583,1.405-15.148,3.475-22.371c-2.95,11.246-3.513,22.885-2.008,33.184c-0.322-7.779,0.064-15.693,1.511-23.441
						c1.43-7.738,3.692-15.345,6.963-22.389c-1.63,3.938-3.077,7.956-4.146,12.075c-1.149,4.097-1.926,8.285-2.505,12.485
						c-2.239,14.057-1.418,28.808,2.858,42.804c-0.206-0.518-0.358-1.059-0.531-1.588c0.291,1.074,0.682,2.117,1.044,3.164
						c1.765,5.437,4.036,10.745,6.798,15.825c2.522,4.541,5.67,8.591,9.058,12.303c0.532,0.668,1.059,1.331,1.585,1.991
						c-1.172-1.115-1.891-1.556-0.009,0.94c4.008,5.346,9.135,10.168,14.88,14.5c1.407,1.125,2.938,2.107,4.426,3.171
						c1.504,1.041,3.086,1.994,4.636,3.02c3.19,1.906,6.439,3.84,9.851,5.622c3.543,1.949,8.713,3.806,14.424,5.143
						c1.479,0.633,2.334,0.687,3.105,0.679c1.242,0.225,2.488,0.514,3.752,0.694c1.535,0.249,3.064,0.548,4.602,0.742
						c1.542,0.162,3.078,0.326,4.601,0.401c-1.503-0.159-3.031-0.322-4.572-0.486c-1.539-0.183-3.081-0.445-4.631-0.657
						c-1.153-0.19-2.279-0.48-3.411-0.702c0.824-0.036,1.684-0.056,3.366,0.264c-10.432-2.213-20.713-6.14-30.063-11.85
						c-9.36-5.681-17.843-12.977-24.957-21.48c1.021,0.877,2.402,2.162,3.011,2.661c-1.564-1.507-3.142-3.017-4.596-4.652
						c-4.443-5.612-8.334-11.685-11.488-18.141c1.024,1.885,2.159,3.538,3.209,4.938c-4.768-8.97-8.298-18.651-10.112-28.709
						c-0.937-5.019-1.512-10.12-1.612-15.241c-0.107-5.115,0.061-10.262,0.777-15.355c3.051-19.052,11.99-36.733,24.955-50.384
						C50.927,70.952,44.5,79.789,39.986,89.781c2.842-6.702,6.453-13.091,10.743-18.996c4.304-5.896,9.33-11.265,14.877-16.011
						c11.076-9.528,24.522-16.237,38.641-19.51c-1.207,0.556-2.52,1.155-3.857,1.742c-1.336,0.593-2.658,1.301-3.93,1.933
						c-1.278,0.62-2.43,1.381-3.458,2.016c-0.51,0.328-0.982,0.644-1.403,0.952c-0.412,0.328-0.776,0.642-1.08,0.938
						c0.103,0.11,0.7-0.035,1.465-0.262c0.779-0.196,1.727-0.475,2.512-0.698c1.57-0.446,2.483-0.664,0.112,0.448
						c-2.159,1.011-4.164,2.131-6.117,3.139c-1.899,1.118-3.772,2.087-5.468,3.197c-3.472,2.076-6.461,4.264-9.104,6.306
						c-5.232,4.161-8.746,8.234-10.167,12.045c-0.088,0.403,0.874-0.096,2.275-0.968c0.729-0.408,1.574-0.902,2.455-1.425
						c0.44-0.26,0.891-0.527,1.344-0.794c0.466-0.247,0.935-0.494,1.394-0.736c0.921-0.476,1.785-0.944,2.568-1.292
						c0.792-0.336,1.468-0.596,1.953-0.731c0.969-0.271,1.179-0.045,0.036,1.053c-3.969,3.458-10.804,10.049-16.329,18.521
						c-0.901,1.147-1.664,2.42-2.52,3.666c-0.813,1.272-1.561,2.617-2.359,3.962c-0.229,0.318-0.369,0.988-0.564,1.812
						c-2.434,4.875-4.307,9.86-5.631,14.331c-1.374,4.463-2.077,8.436-2.643,11.253c-0.17,1.057-0.339,2.107-0.508,3.155
						c-0.184,1.047-0.242,2.107-0.372,3.16c-0.268,1.095-0.558,2.033-0.847,2.769c0.208,1.353,0.268,2.702,0.434,4.043
						c-0.103,5.7,0.399,11.349,1.477,16.848c0.41,3.095,0.89,6.207,1.687,9.222c0.169-0.127,0.264-0.684,0.641-0.185
						c1.014,3.366,2.394,6.593,3.812,9.788c1.548,3.134,3.148,6.247,5.068,9.166c0.633,1.28,1.295,2.479,1.902,3.647
						c0.589,1.186,1.15,2.314,1.682,3.384c3.041,2.497,7.297,7.11,12.517,11.576c5.148,4.531,11.375,8.719,16.886,11.336
						l0.014-0.066c5.464,2.771,11.261,5.014,17.332,6.541c0.964,0.397,1.88,0.816,2.735,1.254c1.579,0.048,3.197,0.267,3.979,0.272
						c4.896,1.008,9.107,1.71,13.398,2.13c0.781-0.123,2.237-0.776,3.88-0.82c1.65,0.004,3.262-0.185,4.856-0.281
						c1.588-0.165,3.144-0.407,4.684-0.615c3.597-0.567,7.246-1.171,10.841-2.194c12.171-3.173,23.48-9.018,33.166-16.844
						c0.45-0.09,0.712,0.059,0.978,0.203c0.635-0.754,1.438-1.605,2.274-2.385c0.414-0.395,0.824-0.784,1.209-1.151
						c0.37-0.382,0.693-0.763,0.96-1.111c-0.161,0.307-0.225,0.539-0.081,0.606c0.903-1.129,1.673-1.975,2.34-2.705
						c0.648-0.748,1.231-1.346,1.821-1.917c0.598-0.564,1.186-1.115,1.813-1.792c0.633-0.67,1.361-1.422,2.189-2.423
						c0.669-0.964,1.072-2.021,1.671-3.002c0.362-0.438,0.672-0.915,1.01-1.381c4.279-4.234,6.726-9.744,9.149-15.839
						c2.685-6.011,4.76-12.345,6.032-18.882c0.452-2.598,0.962-4.379,1.348-5.987c0.223-0.804,0.432-1.561,0.647-2.341
						C218.55,132.062,218.707,131.244,218.867,130.318z"/>
					<path fill="#F2F2F2" d="M78.12,197.146c4.649,3.706,9.682,6.943,15.013,9.639C87.31,204.15,82.042,201.533,78.12,197.146z"/>
					<path fill="#F2F2F2" d="M79.705,60.173c1.083-0.449,2.191-0.975,3.38-1.476c1.175-0.521,2.361-1.129,3.638-1.678
						c-12.611,7.247-23.276,17.883-30.531,30.798L56.127,87.8c2.798-5.239,7.134-11.126,11.777-15.933
						C72.483,66.985,77.156,63.045,79.705,60.173z"/>
					<path fill="#F2F2F2" d="M66.321,186.105c0.212,0.121,0.458,0.291,0.713,0.471c0.011,0.013,0.021,0.023,0.036,0.041
						C66.835,186.496,66.583,186.32,66.321,186.105z"/>
					<path fill="#F2F2F2" d="M102.053,37.517c0.524-0.143,1.036-0.282,1.557-0.424c-1.951,0.617-3.905,1.214-5.811,1.959
						c-1.933,0.666-3.803,1.497-5.689,2.282C95.05,39.91,98.448,38.553,102.053,37.517z"/>
					<path fill="#F2F2F2" d="M145.516,36.206c1.026,0.15,2.04,0.368,3.053,0.597c1.012,0.226,2.03,0.43,3.039,0.675
						c1.998,0.563,4.028,1.029,5.99,1.717c3.979,1.216,7.824,2.832,11.601,4.576c9.54,4.877,17.891,11.529,24.38,19.032
						C180.818,49.562,163.977,40.034,145.516,36.206z"/>
					<path fill="#F2F2F2" d="M105.403,48.577c0.743-0.145,1.482-0.312,2.233-0.431c0.753-0.103,1.509-0.207,2.266-0.31
						c1.502-0.243,3.038-0.322,4.554-0.465c-1.501,0.25-3.011,0.446-4.484,0.802l-2.221,0.474c-0.736,0.173-1.461,0.389-2.192,0.579
						C106.055,48.879,105.518,48.754,105.403,48.577z"/>
					<path fill="#F2F2F2" d="M71.878,53.225c0.661-0.503,1.348-0.978,2.013-1.465c-1.658,1.339-3.19,2.838-4.738,4.289
						C69.673,55.469,70.987,54.181,71.878,53.225z"/>
					<path fill="#F2F2F2" d="M137.521,47.377c-1.094-0.204-2.199-0.295-3.301-0.413s-2.2-0.25-3.305-0.281
						c1.322-0.117,2.627-0.129,3.959-0.262C135.569,46.765,136.479,47.046,137.521,47.377z"/>
					<path fill="#F2F2F2" d="M169.878,58.331c1.284,0.811,2.537,1.633,3.753,2.459c1.174,0.889,2.366,1.705,3.45,2.614
						c-2.847-2.038-5.837-4.031-8.949-5.705C168.931,57.926,169.577,58.09,169.878,58.331z"/>
				</g>
			</g>
		</g>
	</g>
</g>
</svg>
